<?xml version="1.0" standalone="no"?>
<!DOCTYPE svg PUBLIC "-//W3C//DTD SVG 1.1//EN" "http://www.w3.org/Graphics/SVG/1.1/DTD/svg11.dtd" >
<svg xmlns="http://www.w3.org/2000/svg">
<metadata>
This is a custom SVG webfont generated by Font Squirrel.
Copyright   : Pedro Arilla
Designer    : Pedro Arilla
</metadata>
<defs>
<font id="ValentinaRegular" horiz-adv-x="1495" >
<font-face units-per-em="2048" ascent="1638" descent="-410" />
<missing-glyph horiz-adv-x="573" />
<glyph unicode=" "  horiz-adv-x="573" />
<glyph unicode="&#x09;" horiz-adv-x="573" />
<glyph unicode="&#xa0;" horiz-adv-x="573" />
<glyph unicode="!" horiz-adv-x="428" d="M82 1507q0 55 39 94t94 39q53 0 92 -38.5t39 -94.5q0 -8 -22.5 -186t-45 -432t-22.5 -447q-14 6 -42 6.5t-42 -6.5q0 193 -22.5 447t-45 432t-22.5 186zM92 86q0 51 36 86t85 35q51 0 86 -35t35 -86t-35 -86t-86 -35q-49 0 -85 35t-36 86z" />
<glyph unicode="&#x22;" horiz-adv-x="876" d="M82 1524q0 55 39 94t90 39q53 0 93 -39t40 -94q0 -45 -102 -428q-31 14 -66 0q-10 43 -36.5 155.5t-42 181t-15.5 91.5zM532 1524q0 55 39 94t91 39q53 0 93 -39t40 -94q0 -45 -103 -428q-31 14 -65 0q-10 43 -37 155.5t-42.5 181t-15.5 91.5z" />
<glyph unicode="#" horiz-adv-x="1202" d="M82 436v123h242l84 293h-248v121h284l125 430h93l-125 -430h301l125 430h92l-125 -430h190v-121h-225l-88 -293h235v-123h-270l-127 -436h-92l127 436h-301l-127 -436h-92l127 436h-205zM414 559h303l84 293h-301z" />
<glyph unicode="$" horiz-adv-x="1251" d="M88 438h45q0 -96 41 -170.5t109.5 -118t135 -67t140.5 -33.5v670q-88 43 -134 67.5t-117.5 72.5t-107.5 91t-65 107.5t-29 138.5q0 115 36 204t86.5 137t118 79t116.5 41t96 12v150h96v-156q51 -8 127 -31.5t97 -27.5q27 -4 53 4t39 18l14 12h47q-2 -6 -5 -17t-8 -53 t1 -95l29 -271h-48q-2 41 -8 80t-28.5 96.5t-58.5 100.5t-101.5 78.5t-151.5 44.5v-633q12 -6 60.5 -26.5t75 -33t76.5 -39t82 -50t73 -60.5t65.5 -75t46 -89t27.5 -107q16 -137 -19.5 -240.5t-93 -154.5t-140.5 -81.5t-140 -37t-115 -6.5v-149h-92v160q-76 14 -190.5 56 t-137.5 42q-57 0 -75 -72l-2 -6h-48q16 61 17 158q0 49 -8.5 118.5t-16.5 116.5zM279 1307q0 -156 280 -293v590q-145 -8 -212.5 -91t-67.5 -206zM651 41q305 0 305 291q0 113 -78.5 188.5t-226.5 153.5v-633z" />
<glyph unicode="%" horiz-adv-x="1812" d="M84 1268q8 154 115.5 262t292.5 108q74 0 143 -24q193 -68 340 -68q211 0 373 158h104l-977 -1786h-98l887 1630q-92 -49 -235.5 -58t-235.5 15q92 -102 96 -250q2 -160 -106.5 -279.5t-290.5 -119.5q-201 0 -309.5 124t-98.5 288zM236 1276q-8 -156 60.5 -276.5 t195.5 -120.5q117 0 180 112.5t59 263.5q-4 147 -67.5 253t-174.5 106q-115 0 -181 -98.5t-72 -239.5zM924 326q-8 164 101.5 287.5t307.5 123.5q193 0 297.5 -120.5t100.5 -282.5q-4 -154 -109.5 -264.5t-288.5 -110.5q-188 0 -295.5 107.5t-113.5 259.5zM1069 330 q4 -143 73.5 -245.5t188.5 -102.5q113 0 175.5 103t66.5 249q4 154 -61.5 267.5t-182.5 113.5q-127 0 -195.5 -115.5t-64.5 -269.5z" />
<glyph unicode="&#x26;" horiz-adv-x="1660" d="M72 402q-4 87 24.5 157t73.5 129.5t104.5 105.5t111.5 77.5t101 50.5q-6 6 -47 52t-72.5 85t-48.5 65q-49 70 -47 189t68 198q63 76 166.5 110t205 20.5t169.5 -66.5q92 -72 110.5 -178.5t-61.5 -220t-254 -187.5l520 -563l51 84q143 229 113 350q-10 31 -58.5 68 t-56.5 73q-8 41 12.5 65t57.5 21q76 0 106 -75q76 -186 -131 -512l-61 -105l256 -284q55 -61 106 -70l109 -10l2 -31h-361l-213 233q-66 -111 -206 -183.5t-291.5 -86.5t-297 51.5t-214.5 210.5q-43 90 -47 177zM279.5 462q11.5 -77 48.5 -149q70 -133 179 -197.5t219 -57 t210 63.5t158 148l-586 627q-94 -53 -150.5 -127t-73 -152.5t-5 -155.5zM403 1364q4 -53 43 -113.5t72 -95.5t133 -139q92 61 161 156.5t58 187.5q-8 106 -73.5 166.5t-153.5 66.5q-100 6 -174 -56t-66 -173z" />
<glyph unicode="'" horiz-adv-x="425" d="M82 1524q0 55 39 94t90 39q53 0 93 -39t40 -94q0 -45 -102 -428q-31 14 -66 0q-10 43 -36.5 155.5t-42 181t-15.5 91.5z" />
<glyph unicode="(" horiz-adv-x="612" d="M82 633q2 281 104.5 547t300.5 483l43 -12q-231 -473 -231 -1018q-4 -551 231 -1030l-43 -13q-201 219 -304 488.5t-101 554.5z" />
<glyph unicode=")" horiz-adv-x="612" d="M82 -397q236 475 231 1038q-4 541 -231 1010l43 12q197 -215 299 -477t106 -541q4 -287 -99 -560t-306 -495z" />
<glyph unicode="*" horiz-adv-x="765" d="M83 1184.5q7 27.5 32 42.5q16 10 225 69q0 -23 16 -30q-133 -133 -172 -158q-25 -14 -52.5 -6t-41.5 33q-14 22 -7 49.5zM84 1418.5q-8 27.5 6 51.5q16 23 45 31t51 -6q18 -12 170 -158q-16 -10 -16 -30q-203 59 -223 69q-25 15 -33 42.5zM313 1034q0 8 52 226 q16 -8 32 0q53 -184 54 -226q0 -29 -20.5 -49t-49.5 -20t-48.5 20t-19.5 49zM315 1569q0 29 19.5 49t48.5 20t49.5 -20.5t20.5 -48.5q0 -25 -54 -228q-18 6 -34 0q-50 208 -50 228zM408 1266q14 6 18 28q203 -53 223 -67q23 -16 31 -44t-4 -50q-16 -25 -44 -32t-52 7 q-39 25 -172 158zM410 1335q141 141 172 158q25 14 51 7t43 -30q12 -25 5 -53t-32 -43q-27 -16 -223 -67q-4 18 -16 28z" />
<glyph unicode="+" horiz-adv-x="1130" d="M82 530v107h434v430h107v-430h426v-107h-426v-430h-107v430h-434z" />
<glyph unicode="," horiz-adv-x="520" d="M82 -305l10 -29q346 76 346 381q0 80 -48 131t-111.5 51t-106.5 -41t-43 -98q133 -53 133 -160q0 -76 -49 -139t-131 -96z" />
<glyph unicode="-" horiz-adv-x="1011" d="M82 461h848v121h-848v-121z" />
<glyph unicode="." horiz-adv-x="405" d="M82 86q0 51 36 86t85 35q51 0 86 -35t35 -86t-35 -86t-86 -35q-49 0 -85 35t-36 86z" />
<glyph unicode="/" horiz-adv-x="948" d="M82 -78h92l692 1794h-96z" />
<glyph unicode="0" horiz-adv-x="1306" d="M92 817q0 354 164 602t397.5 248t397 -248t163.5 -602q0 -352 -163.5 -600t-397 -248t-397.5 248t-164 600zM332 829q-2 -213 32.5 -398t110.5 -308t178.5 -123t178 123t110.5 308t33 398q-2 211 -36 390.5t-108.5 298t-177 118.5t-177.5 -118.5t-108.5 -298 t-35.5 -390.5z" />
<glyph unicode="1" horiz-adv-x="772" d="M92 1411l6 41q127 0 219.5 30.5t127 66.5t60 73t27.5 39q27 16 33 -27q4 -25 4 -73v-1465q0 -47 17 -49l125 -16v-31h-518v31l124 16q16 2 17 49v1110q0 215 -37 215l-199 -10h-6z" />
<glyph unicode="2" horiz-adv-x="1241" d="M72 82l121 78q166 135 286.5 280.5t181 255t95.5 224t42 173t7 115.5q0 102 -28.5 191.5t-80.5 132.5q-84 59 -188.5 56t-194.5 -54t-94 -113q0 -6 1 -11t5 -9t7.5 -8t11.5 -9.5t12 -8.5t14.5 -9t16.5 -10q86 -49 86 -135q0 -53 -36 -81t-87 -24q-106 4 -141 107 q-35 106 28.5 211.5t181 169t240.5 63.5t222.5 -52t153.5 -131t83 -158t29 -144q0 -76 -8.5 -132.5t-50.5 -157.5t-119.5 -200.5t-229.5 -240t-365 -291.5h326q82 0 140.5 4t138 23.5t129 55.5t85 105.5t35.5 165.5h41q-27 -270 -26 -364v-150h-1057z" />
<glyph unicode="3" horiz-adv-x="1198" d="M82 236l27 75q25 -102 123 -180t211.5 -92t220.5 41q141 90 155.5 292.5t-108.5 327.5q-117 115 -299 95l-27 22q211 74 300 190.5t89 245.5q0 205 -94 299q-59 53 -162.5 56.5t-183.5 -37.5t-84 -96q0 -6 1 -11.5t5 -9.5t7 -8t11.5 -9t12.5 -8.5t14 -9.5t16 -10 q86 -49 86 -135q0 -57 -38.5 -84t-94.5 -21q-102 14 -131 107q-51 154 92 285q117 104 316 104q121 0 212 -28.5t141 -71.5t81 -102.5t40 -109.5t9 -106q0 -129 -92 -233.5t-240 -149.5q158 -41 263.5 -155.5t113.5 -264.5q0 -225 -162.5 -352t-418.5 -127q-141 8 -258 92.5 t-154 178.5z" />
<glyph unicode="4" horiz-adv-x="1265" d="M51 485l836 1162q18 25 29.5 20.5t11.5 -29.5v-1153h20q164 0 176 138l-2 55h41v-447h-41q2 8 3 22.5t-3 50.5t-19.5 63.5t-55 50t-99.5 22.5h-20v-344q0 -47 16 -49l125 -16v-31h-518v31l125 16q16 2 16 49v344h-624zM106 485h586v815z" />
<glyph unicode="5" horiz-adv-x="1193" d="M96 365q18 57 70.5 85.5t105.5 20.5q94 -14 95 -106q0 -94 -88 -148q-8 -6 -22.5 -13t-21 -11.5t-13.5 -9.5t-9 -10t-2 -11q12 -78 150.5 -126t259.5 -16q223 57 223 467q0 377 -217 443q-162 51 -416 -80l68 788h618l55 52h49q-23 -119 -22 -195v-45h-655l-45 -502 q205 86 389 62q190 -27 307 -171.5t117 -387.5q0 -78 -32 -158t-96.5 -156t-182 -124t-271.5 -48q-193 0 -331 116t-83 284z" />
<glyph unicode="6" horiz-adv-x="1214" d="M114 882.5q-40 -225.5 1 -479.5q29 -172 165 -304t351 -132q207 0 344 149.5t137 362.5q0 215 -137 365.5t-344 150.5q-137 0 -266 -77q18 170 70 297.5t116.5 199.5t147.5 117t151 58.5t139 13.5l15 63q-238 0 -426.5 -101.5t-309.5 -283.5q-114 -174 -154 -399.5z M338 481q2 190 79 329.5t214 139.5q115 0 180.5 -139t67.5 -330q0 -193 -64.5 -331t-183.5 -138q-139 0 -216 138t-77 331z" />
<glyph unicode="7" horiz-adv-x="1189" d="M72 1198q31 217 30 315l-8 187h49l39 -62h936v-57l-442 -750q-219 -383 -187 -552q2 -12 8.5 -20.5t11.5 -11.5t20.5 -11.5t25.5 -14.5q88 -51 88 -147q0 -49 -29.5 -76t-76.5 -29q-49 -4 -97.5 26t-66.5 83q-18 55 -20.5 113.5t13 125t34 124t57.5 136t68.5 133 t80.5 144.5l340 584h-502q-53 0 -98 -8.5t-75.5 -19.5t-56.5 -31.5t-39 -36t-25.5 -41t-16.5 -38t-9 -37t-7 -28.5h-45z" />
<glyph unicode="8" horiz-adv-x="1259" d="M92 422q0 186 125 295.5t318 136.5q-154 29 -251.5 133.5t-97.5 274.5q0 195 132.5 302t314.5 105q178 -2 308 -109.5t130 -297.5q0 -172 -88 -274.5t-231 -131.5q182 -27 298.5 -138.5t116.5 -295.5q0 -215 -153.5 -334t-368.5 -123q-141 -2 -265 47t-206 157t-82 253z M328 422q0 -211 98 -323.5t227 -98.5q115 12 196 122.5t81 299.5q0 193 -86 301t-205 113q-125 4 -218 -105.5t-93 -308.5zM414 1262q0 -190 68.5 -294t158.5 -96q84 6 143.5 109.5t59.5 280.5q0 178 -62.5 277t-148.5 99q-88 4 -153.5 -97t-65.5 -279z" />
<glyph unicode="9" horiz-adv-x="1230" d="M104 1151q14 227 154.5 371.5t353.5 144.5q193 0 323 -132t177 -343q49 -193 9 -422t-160 -410q-264 -393 -748 -397l10 55q342 4 510 275q98 160 127 416q-90 -72 -200.5 -92.5t-210 11t-182.5 99.5t-128 180.5t-35 243.5zM348 1151q0 -238 77 -372t183 -134 q104 0 182 133t78 373q0 229 -74.5 357t-179.5 130q-106 4 -186 -126t-80 -361z" />
<glyph unicode=":" horiz-adv-x="405" d="M82 86q0 51 36 86t85 35q51 0 86 -35t35 -86t-35 -86t-86 -35q-49 0 -85 35t-36 86zM82 903q0 51 36 86t85 35q51 0 86 -35t35 -86t-35 -86t-86 -35q-49 0 -85 35t-36 86z" />
<glyph unicode=";" horiz-adv-x="520" d="M82 -305l10 -29q346 76 346 381q0 80 -48 131t-111.5 51t-106.5 -41t-43 -98q133 -53 133 -160q0 -76 -49 -139t-131 -96zM156 903q0 51 35.5 86t84.5 35q51 0 86 -35t35 -86t-34.5 -86t-86.5 -35q-49 0 -84.5 35t-35.5 86z" />
<glyph unicode="&#x3c;" horiz-adv-x="1150" d="M82 803v16l987 662v-107l-838 -561l838 -539v-106z" />
<glyph unicode="=" horiz-adv-x="1130" d="M82 395h967v107h-967v-107zM82 670h967v106h-967v-106z" />
<glyph unicode="&#x3e;" horiz-adv-x="1150" d="M82 168v106l838 539l-838 561v107l987 -662v-16z" />
<glyph unicode="?" horiz-adv-x="1064" d="M90 1280q-27 102 39 199q61 94 160.5 141t214.5 47q152 0 278.5 -81t173.5 -224q25 -76 26 -139.5t-22.5 -111.5t-58.5 -88t-88 -79t-105.5 -73.5t-116 -84t-112.5 -98.5q-55 -55 -34.5 -113.5t104.5 -58.5q12 -51 -19.5 -80.5t-78.5 -25.5q-86 8 -107 96 q-16 78 18.5 152.5t88 123.5t132.5 120t117 120q82 102 86.5 208.5t-49 184.5t-143.5 125q-88 51 -194.5 45t-184.5 -76q-31 -29 -29 -55q0 -20 60 -57q76 -45 76 -117q0 -47 -36 -72.5t-83 -21.5q-90 8 -113 94zM338 86q0 51 36 86t85 35q51 0 86 -35t35 -86t-35 -86 t-86 -35q-49 0 -85 35t-36 86z" />
<glyph unicode="@" horiz-adv-x="2168" d="M72 608q6 199 78.5 387.5t199.5 340t323.5 243.5t430.5 92q238 0 428 -85t304 -225t165 -318.5t29 -364.5q-33 -264 -253.5 -423t-551.5 -159q-20 0 -21 82v12v80q-20 -70 -100 -122t-162 -52q-115 0 -181.5 70t-63.5 165t69 171l33 33l405 127v219q0 160 -45 204 q-53 45 -121.5 41t-126.5 -41q-113 -74 -112 -159q16 37 82 37q37 0 63.5 -28t26.5 -71q0 -47 -30 -71.5t-73 -24.5q-88 4 -114 88q-39 133 96 246q88 70 217 78q328 23 328 -283v-530q0 -154 49 -154q16 2 45 9t104.5 38t138 74t123 125t82.5 184q14 82 16.5 173t-24 186.5 t-66.5 184.5t-111 167t-156 137t-203.5 93t-253.5 34q-211 0 -378 -84t-269.5 -225.5t-154.5 -314.5t-52 -361q0 -246 84 -457t262 -350t416 -139q127 0 242.5 18.5t203.5 50t164 72.5t130 86t98 90t72 86t46 73t29 50l8 20l57 21q-4 -12 -13 -35.5t-47 -89.5t-86 -125 t-134 -133t-186.5 -126t-248 -88t-315.5 -36q-254 0 -452.5 83t-315.5 224.5t-175 314t-52 365.5zM855 363.5q15 -66.5 57 -106.5t92 -48q20 -8 55 -1t66.5 22.5t55 62.5t23.5 117v206l-325 -100q-39 -86 -24 -152.5z" />
<glyph unicode="A" d="M31 0v31l125 16q20 2 32 41l533 1550l35 27l557 -1569q16 -49 43 -51l108 -14v-31h-508v31l125 16q20 2 2 49l-147 420h-506l-145 -428q-12 -37 16 -41l125 -16v-31h-395zM453 582h460l-233 665z" />
<glyph unicode="B" horiz-adv-x="1314" d="M102 0v31l125 16q16 2 17 49v1446q0 47 -17 49l-125 17v30l510 17q23 1 45 1q87 0 161 -14q93 -16 176 -56t129 -120t46 -194q0 -104 -30.5 -182t-86 -122t-94 -64.5t-94.5 -39.5q166 -47 283 -146.5t117 -260.5q0 -205 -148.5 -331t-472.5 -126h-541zM469 100 q0 -47 9 -58t48 -11q135 0 232.5 26.5t148.5 65.5t80 99.5t35 107.5t6 112q0 35 -2 65t-9 66.5t-19.5 64.5t-33 59.5t-50 52t-71.5 42t-96.5 27.5t-122.5 11q-18 1 -38 2q-54 0 -117 -11v-721zM469 907h80q119 0 196.5 29t111.5 84t45 107.5t11 129.5q0 102 -27.5 175 t-73.5 108t-91 50.5t-92 15.5q-92 0 -160 -15v-684z" />
<glyph unicode="C" horiz-adv-x="1437" d="M72 811q0 227 96 423t276.5 315.5t407.5 119.5q63 0 133 -19.5t131.5 -44t79.5 -28.5q8 -3 16 -3q32 0 43 58l2 6h48q-2 -6 -5.5 -17t-8.5 -53q-2 -19 -2 -41q0 -26 3 -54l29 -271h-47v23q0 14 -7 54t-19.5 77t-42 82t-71.5 76.5t-110 54t-154 22.5q-170 0 -293.5 -115.5 t-180 -288.5t-58.5 -374q0 -180 46 -338t143.5 -272.5t232.5 -141.5q79 -14 146 -13q64 0 117 12q108 26 172.5 88.5t99 127t44.5 113.5l13 49h34q-35 -172 -34 -280q0 -43 4 -82t8 -58l4 -18h-47q-2 6 -6 16.5t-23.5 27.5t-46.5 17q-20 0 -53 -14t-70 -31.5t-113.5 -32 t-172.5 -14.5q-213 0 -389.5 116t-275.5 308.5t-99 417.5z" />
<glyph unicode="D" horiz-adv-x="1652" d="M102 0v31l125 16q16 2 17 49v1446q0 47 -17 49l-125 17v30q367 18 684 19q150 0 277 -44t219 -120t157.5 -177.5t100.5 -216t41 -237.5q1 -19 1 -38q0 -143 -41 -277q-46 -152 -139 -274.5t-249 -197.5t-350 -75h-701zM469 160q0 -51 31.5 -79t64.5 -32l31 -2 q55 -5 112 -5t115 5q164 14 280 138t165 301q41 147 40 308q0 34 -1 68q-12 264 -131 468t-324 255q-10 4 -35.5 8t-122.5 11q-26 2 -55 1q-77 0 -170 -12v-1433z" />
<glyph unicode="E" horiz-adv-x="1366" d="M102 0v31l125 16q16 2 17 49v1446q0 47 -17 49l-125 17v30h1131q-14 -33 -14 -110q0 -49 7 -130t15 -138l8 -58h-47q0 373 -467 373h-217q-49 0 -49 -33v-631h281q135 0 168 213l6 78h43v-657h-43q2 12 2 32.5t-5.5 74t-20.5 93t-54 72.5t-96 33h-281v-725q0 -51 20 -62 q33 -16 197 -16q86 0 156.5 6t124 13.5t96.5 27t71.5 33.5t52 46t37 51.5t28 64.5t19.5 69.5t17 79.5h27q-14 -88 -15 -250q0 -41 3.5 -88t7.5 -73l4 -27h-1213z" />
<glyph unicode="F" horiz-adv-x="1300" d="M102 0v31l125 16q16 2 17 49v1446q0 47 -17 49l-125 17v30h1131q-14 -33 -14 -110q0 -49 7 -130t15 -138l8 -58h-47q0 373 -467 373h-217q-49 0 -49 -33v-631h281q135 0 168 213l6 78h43v-657h-43q2 12 2 32.5t-5.5 74t-20.5 93t-54 72.5t-96 33h-281v-754q0 -47 16 -49 l125 -16v-31h-508z" />
<glyph unicode="G" horiz-adv-x="1609" d="M72 813q0 -227 98 -422.5t278.5 -313.5t399.5 -118q125 0 234.5 36t181.5 67q57 25 97 26q10 0 19 -2v354q0 47 17 49l125 17v31h-508v-31l125 -17q16 -2 16 -49v-301q-133 -84 -199 -100q-43 -12 -88 -12q-17 0 -34 2q-166 14 -284 135t-170 291q-50 164 -50 351v15 q4 203 62.5 376t181 287.5t286.5 114.5q119 0 209 -40.5t132 -99t67.5 -117t29.5 -99.5l5 -41h47q-20 164 -29 271q-3 37 -3 67q0 66 15 98h-47q-20 -55 -82 -55q-16 0 -127.5 46t-216.5 46q-233 0 -415.5 -120.5t-277.5 -316.5t-95 -425z" />
<glyph unicode="H" horiz-adv-x="1673" d="M102 0v31l125 16q16 2 17 49v1446q0 47 -17 49l-125 17v30h508v-30l-125 -17q-16 -2 -16 -49v-639h735v639q0 47 -16 49l-125 17v30h508v-30l-125 -17q-16 -2 -16 -49v-1446q0 -47 16 -49l125 -16v-31h-508v31l125 16q16 2 16 49v742h-735v-742q0 -47 16 -49l125 -16v-31 h-508z" />
<glyph unicode="I" horiz-adv-x="712" d="M102 0v31l125 16q16 2 17 49v1446q0 47 -17 49l-125 17v30h508v-30l-125 -17q-16 -2 -16 -49v-1446q0 -47 16 -49l125 -16v-31h-508z" />
<glyph unicode="J" horiz-adv-x="903" d="M31 -106q4 39 39.5 72.5t99.5 33.5q45 0 77 -40t32 -83q-2 -72 -58 -98q18 -5 34 -6q33 0 58 23q37 34 53.5 118t21.5 172t5 221v1235q0 47 -16 49l-125 17v30h508v-30l-125 -17q-16 -2 -17 -49v-1374q-31 0 -48 -33t-46.5 -128t-54.5 -159q-37 -96 -121 -130 q-49 -20 -98 -19q-36 0 -72 10q-70 18 -111 69q-37 44 -37 99q0 9 1 17z" />
<glyph unicode="K" horiz-adv-x="1562" d="M102 0v31l125 16q16 2 17 49v1446q0 47 -17 49l-125 17v30h508v-30l-125 -17q-16 -2 -16 -49v-620l610 628q14 14 14 24q0 14 -30 17l-125 17v30h451v-30l-109 -15q-57 -10 -90 -43l-512 -544l684 -910q37 -47 61 -53l109 -12v-31h-526v31l124 16q18 2 18 15q0 12 -15 34 l-596 776l-68 -75v-701q0 -47 16 -49l125 -16v-31h-508z" />
<glyph unicode="L" horiz-adv-x="1345" d="M102 0v31l125 16q16 2 17 49v1446q0 47 -17 49l-125 17v30h508v-30l-125 -17q-16 -2 -16 -49v-1417q0 -51 20 -62q33 -16 197 -16q86 0 156.5 6t124 13.5t96.5 27t71.5 33.5t52 46t37 51.5t28 64.5t19.5 69.5t17 79.5h27q-14 -88 -15 -250q0 -41 3.5 -88t7.5 -73l4 -27 h-1213z" />
<glyph unicode="M" horiz-adv-x="1853" d="M88 0v31l125 16q16 2 16 49v1417q0 51 -2 63.5t-12 14.5l-127 17v30h379l481 -1198l436 1198h367v-30l-125 -17q-16 -2 -16 -49v-1446q0 -47 16 -49l125 -16v-31h-508v31l125 16q16 2 16 49v1293l-507 -1409l-553 1374v-1258q0 -47 16 -49l125 -16v-31h-377z" />
<glyph unicode="N" horiz-adv-x="1501" d="M88 0v31l125 16q16 2 16 49v1417q0 51 -2 63.5t-12 14.5l-127 17v30h309l781 -1161v1065q0 47 -17 49l-125 17v30h377v-30l-125 -17q-16 -2 -16 -49v-1511q0 -31 -17 -31q-23 0 -61 61l-870 1272v-1237q0 -47 16 -49l125 -16v-31h-377z" />
<glyph unicode="O" horiz-adv-x="1683" d="M72 819q0 354 226 602t543.5 248t544 -247.5t226.5 -602.5q0 -352 -226.5 -601t-544 -249t-543.5 249t-226 601zM309 819q0 -336 157 -558t376 -222t375.5 222t156.5 558t-156.5 558t-375.5 222t-376 -222t-157 -558z" />
<glyph unicode="P" horiz-adv-x="1241" d="M102 0v31l125 16q16 2 17 49v1446q0 47 -17 49l-125 17v30l510 17q23 1 45 1q87 0 161 -14q93 -16 176 -56t129 -120t46 -194q0 -289 -270 -395q-98 -39 -205.5 -39t-165.5 18l-59 18v-778q0 -47 16 -49l125 -16v-31h-508zM469 907h80q119 0 196.5 29t111.5 84t45 107.5 t11 129.5q0 106 -30.5 179t-75.5 109t-108 50q-51 12 -97 12h-19q-54 -3 -114 -16v-684z" />
<glyph unicode="Q" horiz-adv-x="1654" d="M72 819q0 354 226 603t546 249q326 0 532.5 -245.5t206.5 -606.5q0 -358 -207 -604t-532 -246q-176 0 -410 127q-141 -55 -141 -174q109 -25 693.5 -193.5t885.5 -199.5q122 -14 238 -14q332 0 622 112l33 -33q-365 -258 -809 -258q-42 0 -84 2q-225 14 -486.5 95.5 t-455 171.5t-405.5 173t-343 97q0 174 146 266l26 17q-123 113 -202.5 289.5t-79.5 371.5zM326 819q0 -383 156 -592q147 -195 341 -195q13 0 27 1q199 12 341 220t142 566q0 365 -146.5 568.5t-348.5 207.5h-8q-202 0 -352 -201q-152 -206 -152 -575z" />
<glyph unicode="R" horiz-adv-x="1566" d="M102 0v31l125 16q16 2 17 49v1446q0 47 -17 49l-125 17v30l510 17q23 1 45 1q87 0 161 -14q93 -16 176 -56t129 -120t46 -194q0 -111 -36.5 -194t-99 -130t-126 -70.5t-137.5 -33.5q113 -12 221.5 -128t128.5 -302q12 -127 48 -207t97.5 -117t121 -48t149.5 -11l-16 -31 q-135 -35 -242 -35q-307 0 -379 289q-10 37 -17.5 117t-17.5 143.5t-35.5 133t-84 116.5t-148.5 65q-20 4 -52 4.5t-52 -2.5l-23 -2v-733q0 -47 16 -49l125 -16v-31h-508zM469 907h80q119 0 196.5 29t111.5 84t45 107.5t11 129.5q0 106 -30.5 179t-75.5 109t-108 50 q-51 12 -97 12h-19q-54 -3 -114 -16v-684z" />
<glyph unicode="S" horiz-adv-x="1251" d="M88 438h45q0 -117 59.5 -200.5t150.5 -123.5t169 -56.5t143 -16.5q301 0 301 291q0 111 -76.5 187.5t-222.5 150.5q-33 16 -105.5 52t-111.5 57.5t-100 58t-95 69.5t-70 78t-52.5 97.5t-16.5 113.5q0 121 39 212t93.5 139t126 78t121 37t92.5 7q76 0 184 -31.5t117 -33.5 q27 -4 53 4t39 18l14 12h47q-2 -6 -5 -17t-8 -53q-2 -19 -2 -41q0 -26 3 -54l29 -271h-48v21q-2 37 -10 74.5t-34.5 97t-67.5 102.5t-118 76t-177 33q-164 0 -239.5 -84t-75.5 -215q0 -57 33.5 -110.5t98 -97.5t111.5 -69.5t125 -60.5t88 -39q88 -43 128 -64.5t104.5 -64.5 t95.5 -81t59.5 -97.5t36.5 -133.5q5 -44 5 -83q0 -95 -27 -170q-39 -106 -119 -162t-169 -80.5t-194 -24.5q-98 0 -251.5 54.5t-172.5 54.5q-57 0 -75 -72l-2 -6h-48q16 61 17 158q0 49 -8.5 118.5t-16.5 116.5z" />
<glyph unicode="T" horiz-adv-x="1323" d="M31 1202q31 217 30 326q0 78 -14 110h1229q-14 -33 -14 -110q0 -49 8 -130t16 -138l6 -58h-47q0 371 -469 373q-2 -8 -2 -33v-1446q0 -47 17 -49l124 -16v-31h-507v31l124 16q16 2 17 49v1446q0 25 -2 33q-469 -2 -469 -373h-47z" />
<glyph unicode="U" horiz-adv-x="1603" d="M102 1608v30h508v-30l-125 -17q-16 -2 -16 -49v-768q0 -113 2 -177.5t9 -152.5t22.5 -136t43 -104.5t68.5 -84t101.5 -47t140.5 -19.5q233 0 328.5 152.5t95.5 417.5v919q0 47 -16 49l-125 17v30h377v-30l-125 -17q-14 -2 -15 -39v-10v-958q0 -610 -528 -611 q-117 0 -209 20.5t-154.5 55.5t-107.5 93.5t-70.5 119t-40 149.5t-18.5 167.5t-4 191.5v772q0 47 -17 49z" />
<glyph unicode="V" d="M31 1608v30h508v-30l-125 -17q-20 -2 -2 -49l403 -1149l395 1157q12 37 -16 41l-125 17v30h395v-30l-125 -17q-20 -2 -32 -41l-533 -1550l-35 -27l-557 1569q-16 49 -43 51z" />
<glyph unicode="W" horiz-adv-x="2299" d="M31 1608v30h508v-30l-125 -17q-20 -2 -2 -49l403 -1149l285 834l-113 315q-16 49 -43 51l-108 15v30h507v-30l-124 -17q-20 -2 -2 -49l403 -1149l395 1157q12 37 -16 41l-125 17v30h395v-30l-125 -17q-20 -2 -33 -41l-532 -1550l-35 -27l-395 1114l-375 -1087l-35 -27 l-557 1569q-16 49 -43 51z" />
<glyph unicode="X" horiz-adv-x="1501" d="M31 0v31l108 14q37 6 62 43l475 715l-436 739q-27 47 -43 51l-109 15v30h508v-30l-125 -17q-29 -4 -2 -49l348 -592l397 600q8 18 3 28.5t-19 12.5l-125 17v30h395v-30l-108 -15q-23 -4 -49 -43l-449 -678l457 -776q27 -47 43 -51l108 -14v-31h-507v31l124 16q29 4 3 49 l-369 631l-424 -639q-8 -18 -3 -28.5t19 -12.5l125 -16v-31h-407z" />
<glyph unicode="Y" horiz-adv-x="1441" d="M31 1608v30h508v-30l-125 -17q-29 -4 -2 -49l348 -592l397 600q8 18 3 28.5t-19 12.5l-125 17v30h395v-30l-108 -15q-23 -4 -50 -43l-424 -641v-813q0 -47 17 -49l125 -16v-31h-508v31l125 16q16 2 16 49v729l-422 717q-27 47 -43 51z" />
<glyph unicode="Z" horiz-adv-x="1314" d="M51 0v61l901 1508h-381q-100 0 -178 -36t-116.5 -83t-63.5 -105.5t-30 -91t-5 -51.5h-47q33 217 33 316q0 33 -4 71.5t-8 61.5l-7 22h48l49 -35h977v-45l-908 -1521h377q57 0 88 1t82 4t80 9t70 18.5t65.5 31t53 46t45 63.5t29.5 85t18 108h45q-35 -186 -35 -280 q0 -96 4 -158h-1182z" />
<glyph unicode="[" horiz-adv-x="575" d="M82 -354v1992h412v-2l-13 -45h-239v-1898h239l13 -47h-412z" />
<glyph unicode="\" horiz-adv-x="948" d="M82 1716l692 -1794h92l-688 1794h-96z" />
<glyph unicode="]" horiz-adv-x="575" d="M82 -354l12 47h240v1898h-240l-12 45v2h412v-1992h-412z" />
<glyph unicode="^" horiz-adv-x="1210" d="M82 346l434 664q35 61 55 67q14 6 27.5 0t19.5 -16l7 -8l503 -707h-305l-331 485l-324 -485h-86z" />
<glyph unicode="_" horiz-adv-x="1282" d="M82 -215v-123h1118v123h-1118z" />
<glyph unicode="`" horiz-adv-x="548" d="M90 1518q-20 18 0 18h189l34 -18l154 -351h-35z" />
<glyph unicode="a" horiz-adv-x="974" d="M150 375l32 33l406 127v219q0 160 -45 204q-49 41 -111 42q-6 0 -11 -1q-69 -4 -126 -41q-113 -74 -113 -159q16 37 82 37q37 0 63.5 -28t26.5 -71q0 -45 -29.5 -70.5t-70.5 -25.5q-90 4 -117 88q-9 30 -8 59q0 100 104 187q88 70 218 78q23 2 43 1q284 0 284 -284v-518 q0 -61 10.5 -125t22.5 -64h123v-30q-172 0 -264 -64q-82 14 -82 94v80q-20 -70 -100 -122t-162 -52q-115 0 -182 70q-64 67 -63 156q0 101 69 180zM239 237q15 -67 57 -107t91 -48q12 -4 27 -4q13 0 29 3q34 7 66 22.5t55.5 62.5t23.5 117v206l-326 -100q-28 -62 -28 -113 q1 -20 5 -39z" />
<glyph unicode="b" horiz-adv-x="1167" d="M61 1528v47q74 0 136.5 15.5t107.5 35t55 21.5q4 1 8 0q20 0 27 -20q8 -24 8 -99v-570l187 76q88 -20 157.5 -51t152.5 -93.5t137.5 -173t66.5 -259.5q3 -30 2 -58q0 -193 -123 -312q-123 -118 -281 -118q-24 0 -49 2q-78 8 -128 32t-122 79q0 -98 -12 -109 q-12 -3 -24 -3q-10 0 -19 2q-20 5 -85.5 15.5t-123.5 12.5v35h47q31 0 31 280v1012q0 205 -31 205zM403 283q0 -135 76 -200t158 -65q106 0 178 98.5t72 323.5q0 211 -112.5 342t-248.5 176l-123 -51v-624z" />
<glyph unicode="c" horiz-adv-x="985" d="M61 496q8 211 135.5 375.5t340.5 185.5q22 2 43 2q129 0 238 -74q105 -70 105 -169q0 -22 -5 -46q-8 -37 -36 -57.5t-63 -22.5h-6q-39 0 -70 24q-33 26 -32 72q0 45 45 101q12 15 11 32q0 19 -14 38q-28 38 -89 55q-29 8 -63 7q-38 0 -81 -9q-139 -39 -209 -182 q-61 -124 -60 -275q0 -22 1 -45q12 -195 109 -334q93 -133 242 -133h13q59 2 108.5 25.5t77 48t53.5 67.5t31 55.5t15 41.5l33 -31l-6 -19l-9 -30q-3 -10 -14.5 -34t-22 -40t-28.5 -39t-37.5 -38t-49.5 -33.5t-62.5 -29t-75.5 -17.5t-92 -7q-236 0 -359 158 q-117 150 -117 356v21z" />
<glyph unicode="d" horiz-adv-x="1167" d="M63 457q12 150 66.5 260t137.5 172.5t152.5 93.5t158.5 51l186 -76v371q0 203 -31 203l-125 -4v47q72 0 133.5 13.5t106.5 29.5t55 18q4 1 9 1q22 0 29 -19q9 -23 9 -96v-1284q2 -59 12.5 -118t20.5 -59h123v-30q-59 0 -138 -19.5t-130 -33.5q-32 -8 -48 -8q-10 0 -14 3 q-12 10 -12 109q-72 -55 -122 -78.5t-128 -32.5q-25 -3 -48 -2q-158 0 -282 118q-123 119 -123 312q-1 28 2 58zM281 440q0 -225 71.5 -323.5t177.5 -98.5q82 0 158 64.5t76 200.5v624l-158 66q-127 -43 -226 -180.5t-99 -352.5z" />
<glyph unicode="e" horiz-adv-x="985" d="M116 773q52 122 163.5 203t261.5 81q84 0 154.5 -29t113.5 -72t72.5 -94t41 -94t11.5 -74q0 -8 -19 -14l-643 -193q0 -49 17 -141q66 -301 332 -301q188 0 282 238l31 -33q-2 -16 -10.5 -41t-35 -70t-66.5 -80.5t-113.5 -63.5t-167.5 -28q-229 0 -356 161 q-124 158 -124 375q1 143 55 270zM268 535l477 141q0 14 -1 35.5t-13 79t-32.5 101.5t-66.5 80t-108 36q-199 0 -245 -293q-11 -75 -12 -143q0 -18 1 -37z" />
<glyph unicode="f" horiz-adv-x="638" d="M82 0v31l125 16q16 2 16 49v881h-141v47h141q0 94 3 149.5t29 149.5t77 160q100 147 252 155h6q99 0 179 -60q83 -62 85 -136q0 -41 -29.5 -72t-72.5 -31t-73 31t-30 72q0 59 47 86q33 25 15 37q-4 4 -20.5 11t-44.5 12t-58 -3q-174 -43 -174 -498v-63h219v-47h-219v-881 q0 -47 16 -49l125 -16v-31h-473z" />
<glyph unicode="g" horiz-adv-x="1099" d="M-41 -330v12q0 88 57 171q61 88 177 133q-96 55 -122 123q-11 29 -11 55q0 37 20 72q35 59 86 104t108 74l-22 22q-111 99 -111 250v16q4 143 103.5 249t259.5 106q186 0 297 -152q41 -57 90 -82q42 -21 70 -21q5 0 9 1q30 4 29 18q0 6 -32.5 37t-32.5 64q0 43 27 65 q24 21 57 21h6q31 -2 57.5 -21.5t34.5 -52.5q4 -16 4 -32q0 -39 -26 -74q-37 -48 -99 -58q-16 -3 -31 -3l-112 40q15 -52 15 -105t-15 -107q-31 -108 -123 -183.5t-225 -75.5q-104 0 -205 59q-29 -12 -60.5 -44t-53.5 -72q-11 -20 -10.5 -42t10.5 -44q22 -45 98 -74 q294 48 401 48q12 0 23 -1q147 -8 219 -123q14 -23 26 -49q10 -23 17 -66q2 -14 2 -32q0 -35 -8 -83q-12 -73 -51.5 -140.5t-137.5 -132t-246 -97.5q-119 -26 -214 -27q-118 0 -199 41q-148 74 -156 213zM152 -274q0 -98 96 -171q82 -62 217 -63q23 0 47 2q96 8 167 40 t107.5 78t54 82t25.5 75q6 33 6 61q0 125 -109 167q-59 23 -164 23q-131 0 -333 -36q-12 -10 -31.5 -31t-51 -87t-31.5 -140zM324 698.5q0 -155.5 52 -242.5t124 -89h3q72 0 125 86q54 88 54 245q0 152 -52 238t-124 88h-4q-72 0 -124 -84q-54 -86 -54 -241.5z" />
<glyph unicode="h" horiz-adv-x="1204" d="M72 1528v47q102 0 202.5 32.5t110.5 32.5q33 -6 33 -88v-591l313 94q115 0 203 -83t88 -272v-604q0 -47 16 -49l125 -16v-31h-473v31l125 16q16 2 16 49v543q0 180 -43 248.5t-151 68.5q-57 0 -100 -20.5t-64.5 -47t-35 -62t-16.5 -58.5t-3 -41v-631q0 -47 16 -49 l125 -16v-31h-473v31l125 16q16 2 16 49v1233q0 203 -30 203z" />
<glyph unicode="i" horiz-adv-x="620" d="M72 942v47q100 0 202.5 36t106.5 36q37 0 37 -80v-885q0 -47 16 -49l125 -16v-31h-473v31l125 16q16 2 16 49v649q0 201 -30 201zM195 1429.5q0 47.5 32.5 80t79.5 32.5q45 0 78 -32.5t33 -79.5q0 -45 -33 -78t-78 -33q-47 0 -79.5 31.5t-32.5 79z" />
<glyph unicode="j" horiz-adv-x="538" d="M-102 -440q0 33 27 67q26 33 70 33h5q43 0 66.5 -29.5t23.5 -64.5q4 -57 -43 -82q21 -7 38 -7q56 0 75 72q25 94 24 392v804q0 201 -30 201l-125 -4v47q76 0 144.5 18.5t111.5 36t59 15.5q31 0 31 -66v-1190q-14 0 -25.5 -11t-24 -37.5t-21.5 -55.5t-26.5 -78t-31.5 -88 q-23 -59 -77 -90q-48 -27 -101 -27h-15q-66 4 -110.5 42.5t-44.5 101.5zM152 1431.5q0 45.5 32.5 78t77.5 32.5t78 -32.5t33 -78t-33 -78t-78 -32.5t-77.5 32.5t-32.5 78z" />
<glyph unicode="k" horiz-adv-x="1255" d="M72 1528v47q102 0 203.5 32.5t109.5 32.5q33 0 33 -77v-998l291 289q83 90 82 113q0 4 -3 6q-6 4 -43 4h-122v47h467v-47h-111q-68 0 -113 -37t-301 -293q35 -39 170 -205t237.5 -278.5t133.5 -116.5l108 -14v-33h-516v33l111 14q11 2 11 13q0 59 -283 370q-14 16 -41 47 q-35 37 -50 53l-28 -28v-406q0 -47 16 -49l125 -16v-31h-473v31l125 16q16 2 16 49v1233q0 203 -30 203z" />
<glyph unicode="l" horiz-adv-x="600" d="M72 1528v47q70 0 131 13.5t109 30.5t59 19q5 1 10 1q17 0 26 -11q11 -14 11 -61v-1471q0 -47 16 -49l125 -16v-31h-473v31l125 16q16 2 16 49v1235q0 201 -30 201z" />
<glyph unicode="m" horiz-adv-x="1716" d="M61 942v47q70 0 131.5 13.5t108.5 32t59 20.5q5 1 9 0q20 0 28 -16q10 -19 11 -78l272 94q152 0 229 -117l334 117q115 0 203 -83t88 -272v-604q0 -47 16 -49l125 -16v-31h-473v31l125 16q16 2 16 49v543q0 186 -37.5 251.5t-156.5 65.5q-178 0 -178 -229v-631 q0 -47 16 -49l125 -16v-31h-473v31l125 16q16 2 16 49v543q0 186 -37.5 251.5t-156.5 65.5q-178 0 -178 -229v-631q0 -47 16 -49l125 -16v-31h-473v31l125 16q16 2 16 49v647q0 203 -31 203z" />
<glyph unicode="n" horiz-adv-x="1193" d="M61 942v47q72 0 136.5 15.5t108.5 33t59 19.5q4 1 7 0q18 0 26 -17q9 -20 10 -79l313 94q115 0 203 -83t88 -272v-604q0 -47 16 -49l125 -16v-31h-473v31l125 16q16 2 16 49v543q0 180 -43 248.5t-151 68.5q-57 0 -100.5 -20.5t-65 -47t-34.5 -62t-16 -58.5t-3 -41v-631 q0 -47 16 -49l125 -16v-31h-473v31l125 16q16 2 16 49v647q0 203 -31 203z" />
<glyph unicode="o" horiz-adv-x="1122" d="M61 508q0 229 146.5 390t353.5 161t353.5 -161t146.5 -390q0 -225 -147.5 -387t-352.5 -162t-352.5 162t-147.5 387zM281 514q0 -215 81.5 -364.5t198.5 -149.5t199 149.5t82 364.5t-82 362.5t-199 147.5t-198.5 -147.5t-81.5 -362.5z" />
<glyph unicode="p" horiz-adv-x="1189" d="M72 946v47q76 0 139 13.5t108.5 30t55.5 18.5q4 1 8 0q20 0 27 -18q8 -22 8 -93q100 106 244 111h18q120 0 221 -48q109 -52 174 -170q54 -97 54 -223q0 -28 -3 -57q-33 -459 -530 -580l-178 60v-522q0 -47 16 -50l125 -16v-31h-473v31l125 16q16 2 16 50v1235 q0 201 -30 200zM418 92l112 -35q150 45 259.5 172t109.5 344q0 420 -254 437q-7 1 -13 0q-71 0 -139 -61q-75 -67 -75 -197v-660z" />
<glyph unicode="q" horiz-adv-x="1167" d="M63 477q8 121 50.5 217.5t94.5 154.5t128 103t132 65.5t128 39.5l178 -64q0 66 33 66q10 0 82 -32t131 -32v-47l-25 2q-31 2 -30 -200v-1235q0 -47 16 -50l125 -16v-31h-473v31l125 16q16 2 16 50v575q-102 -98 -244 -113q-25 -3 -48 -2q-165 0 -294 122 q-128 122 -127 318q-1 30 2 62zM289 461q0 -416 258 -416q76 0 151.5 55.5t75.5 151.5v694l-178 62q-123 -41 -215 -182.5t-92 -364.5z" />
<glyph unicode="r" horiz-adv-x="872" d="M61 942v47q76 0 138.5 12.5t110.5 30t55 19.5q5 1 10 1q20 0 25 -22q7 -27 8 -127q102 148 234 148h7q88 -2 145 -65q39 -43 39 -91q0 -21 -8 -43q-18 -51 -59 -74q-30 -17 -61 -16q-11 0 -23 2q-78 14 -78 98q0 43 19.5 66.5t39 34t19.5 22.5q0 8 -21.5 13.5t-58.5 -2 t-70 -29.5q-125 -88 -124 -344v-527q0 -47 16 -49l125 -16v-31h-473v31l125 16q16 2 16 49v647q0 203 -31 203z" />
<glyph unicode="s" horiz-adv-x="835" d="M61 309h33q0 -145 109.5 -222t234.5 -77q96 0 142 47q43 45 43 122q0 65 -49 106q-46 39 -136 80q-170 78 -225 118q-135 102 -135 271q0 76 25.5 135t61.5 90t81 50.5t77.5 24.5t59.5 5q72 0 188 -45q23 -6 37.5 -4t22.5 8l8 6h31q-4 -23 -4 -74l18 -196h-33 q0 16 -2 36.5t-16.5 64.5t-39 76t-77.5 57.5t-125 25.5q-106 0 -154 -52q-40 -43 -40 -112q0 -15 2 -31q4 -33 27.5 -62.5t65.5 -56t72.5 -43t76.5 -37t51 -22.5q129 -61 193.5 -129t76.5 -184q3 -26 3 -51q0 -63 -20 -111q-27 -68 -79 -102.5t-110 -50t-124 -15.5 q-84 0 -174 43t-100 43q-18 0 -30.5 -10.5t-14.5 -20.5l-2 -10h-33q6 12 6 76z" />
<glyph unicode="t" horiz-adv-x="737" d="M72 989v35q13 -1 24 -1q101 0 174 46q35 23 60.5 77t34.5 97l8 43h37v-262h219v-35h-219v-727q0 -33 5 -67.5t17 -73.5t39 -62.5t64 -23.5q61 0 110 33.5t64 58.5l28 -21q-31 -45 -121 -96t-190 -51q-133 0 -173 69.5t-40 223.5v737h-141z" />
<glyph unicode="u" horiz-adv-x="1204" d="M41 946v45q109 0 213 37l102 35q33 0 33 -84v-578q0 -199 43 -278.5t150 -79.5q72 0 123 28.5t72.5 73.5t29.5 80t8 68v424q0 236 -33 235q-74 0 -123 -6v45q72 0 134.5 14.5t109.5 34t58 21.5q25 6 35 -11.5t10 -70.5v-694q6 -195 36 -195l121 4v-41q-104 0 -181 -21.5 t-111.5 -43t-36.5 -21.5q-14 0 -19.5 18.5t-5.5 73.5l-320 -92q-51 4 -84.5 10.5t-76.5 29t-69 60t-43 107.5t-17 168v375q0 236 -33 235q-76 0 -125 -6z" />
<glyph unicode="v" horiz-adv-x="1107" d="M41 993v31h473v-31l-125 -16q-20 -4 -10 -29l239 -706l226 700q8 31 -21 35l-125 16v31h369v-31l-125 -16q-31 -4 -47 -47l-297 -928q-4 -10 -40 -10t-40 10l-313 926q-14 45 -39 49z" />
<glyph unicode="w" horiz-adv-x="1581" d="M41 993v31h946v-31l-125 -16q-20 -4 -10 -29l240 -706l225 700q8 31 -21 35l-125 16v31h369v-31l-125 -16q-35 -4 -45 -47l-299 -928q-4 -10 -40 -10t-40 10l-198 612l-195 -612q-4 -10 -40 -10t-40 10l-313 926q-14 45 -39 49zM379 948l239 -706l144 444l-82 242 q-2 6 -5 14t-4 12t-4 10.5t-4 9.5t-3.5 7t-4.5 6t-5 3t-5 2t-6 1h-250q-18 0 -18 -16q0 -11 8 -29z" />
<glyph unicode="x" horiz-adv-x="1136" d="M41 0v31l125 16q23 2 55 49l279 385l-269 447q-27 47 -45 49l-125 16v31h502v-31l-125 -16q-27 -4 -26 -22q0 -11 10 -27l190 -318l232 318q12 20 5 33.5t-22 15.5l-125 16v31h388v-31l-125 -16q-16 -2 -54 -49l-266 -371l277 -461q29 -47 49 -49l125 -16v-31h-506v31 l125 16q14 2 20 14.5t-4 34.5l-201 334l-241 -334q-12 -20 -5 -33.5t21 -15.5l125 -16v-31h-389z" />
<glyph unicode="y" horiz-adv-x="1107" d="M41 993v31h473v-31l-125 -16q-20 -4 -10 -29l239 -706l226 700q8 31 -21 35l-125 16v31h369v-31l-125 -16q-31 -4 -47 -47l-442 -1379q-23 -76 -75 -108q-42 -26 -88 -26q-12 0 -24 1q-66 10 -107 61q-32 39 -33 89q0 15 3 31q14 84 102 84q49 0 77 -42q19 -29 19 -63 q0 -15 -3 -31q-16 -66 -95 -65q25 -20 57 -20q18 0 38 7q55 17 75 89l131 405l-325 965q-14 45 -39 49z" />
<glyph unicode="z" horiz-adv-x="935" d="M61 0v35l566 954h-201q-80 0 -137.5 -32.5t-81 -77.5t-32.5 -77t-9 -48h-29q18 133 19 194l-4 99h28l27 -23h627v-35l-566 -954h236q125 0 230.5 67.5t105.5 206.5h24q-20 -154 -20 -217q0 -51 4 -92h-787z" />
<glyph unicode="{" horiz-adv-x="813" d="M85 638q-7 9 0 17.5t24 8.5q35 2 63.5 11t50 20.5t36.5 35t25.5 39.5t17.5 51t10 54.5t3 62.5v63q0 20 -2 70.5t-2 69.5q-2 88 2 148.5t26.5 132t66 114.5t126 72.5t199.5 29.5l-12 -39q-94 0 -147.5 -38.5t-69 -103t-18.5 -146.5t5 -170q2 -98 -2 -162t-26.5 -139.5 t-77.5 -122.5t-145 -68q86 -20 140 -66t77.5 -115t30 -132.5t3.5 -153.5q0 -25 -2 -73t-3 -72.5t0 -67.5t4.5 -66.5t10.5 -57t18 -52t29.5 -41t42 -34t56.5 -19.5t74 -8l12 -37q-123 0 -208 30.5t-126 83t-63.5 122t-21.5 145.5t1 155v208q0 95 -49 160t-155 71q-17 0 -24 9 z" />
<glyph unicode="|" horiz-adv-x="268" d="M94 -242h92v1794h-92v-1794z" />
<glyph unicode="}" horiz-adv-x="813" d="M82 -346l12 37q51 0 90 13t64.5 30.5t42 53.5t25 63.5t10.5 80t1 84t-3 94t-2 93.5q0 86 7 147.5t31.5 126t78 108.5t136.5 64q-74 16 -124 52t-75.5 83t-38.5 105.5t-13 120.5v127q8 88 5 172t-17.5 148.5t-69 103t-148.5 38.5l-12 39q117 0 200 -29.5t126 -72.5 t65.5 -114.5t26.5 -132t2 -148.5q0 -18 -2 -68.5t-2 -71.5v-63q0 -43 3 -62.5t10 -54.5t17.5 -51t25.5 -39.5t36.5 -35t50.5 -20.5t64 -11q16 0 23 -8.5t0 -17.5t-23 -9q-78 -4 -125.5 -41t-62.5 -93.5t-19 -129t2 -152.5q2 -37 2 -55q2 -90 -2 -150.5t-26.5 -133.5 t-65.5 -117t-125 -73.5t-201 -29.5z" />
<glyph unicode="~" horiz-adv-x="1032" d="M82 426l123 184q29 43 68.5 71t70.5 28q14 0 26.5 -1t21.5 -2t23.5 -5.5t22.5 -7.5t29.5 -11t36.5 -12q10 -4 48 -16.5t59.5 -18.5t58.5 -16.5t62.5 -13.5t53 -4t49 7t33.5 23l58 76l24 -19l-121 -176q-76 -104 -163 -104q-51 0 -162 43q-8 2 -50 20t-77 29.5t-80 20.5 t-80 2t-53 -34l-55 -81z" />
<glyph unicode="&#xa1;" horiz-adv-x="428" d="M82 -500q0 8 22.5 186.5t45 432.5t22.5 446q14 -6 42 -6t42 6q0 -193 22.5 -446.5t45 -432t22.5 -186.5q0 -55 -39 -94t-92 -39q-55 0 -94 39t-39 94zM92 921.5q0 51.5 36 86t85 34.5q51 0 86 -34.5t35 -86t-35 -86t-86 -34.5q-49 0 -85 34.5t-36 86z" />
<glyph unicode="&#xa2;" horiz-adv-x="985" d="M63 651q10 193 119 345.5t293 193.5v110h88v-98q119 4 223 -55q72 -39 109 -100.5t23 -133.5q-8 -43 -45 -63.5t-78 -13.5q-37 4 -60.5 29.5t-23.5 64.5q0 45 45 100q20 27 6 56.5t-55 52.5q-63 31 -144 22v-975q238 -35 338 236l33 -31l-6 -20q-6 -20 -11.5 -33.5 t-16.5 -38.5t-25.5 -43t-35 -42t-47 -41t-59.5 -32.5t-77 -25t-93 -11.5v-104h-88v109q-209 23 -316.5 179t-95.5 363zM252 662q6 -145 65.5 -269.5t157.5 -175.5v920q-117 -51 -173 -183t-50 -292z" />
<glyph unicode="&#xa3;" horiz-adv-x="1298" d="M101 67.5q3 22.5 26 30.5q162 63 229.5 156.5t67.5 253.5v201h-295l21 84h274v229q0 195 27 285q33 106 108 182q96 94 213 129q154 47 279 -7.5t125 -170.5q0 -55 -39 -82t-88 -17q-78 16 -78 99q0 59 47 86q33 25 14 37q-12 8 -47 17t-101.5 5t-117.5 -39 q-158 -109 -158 -461v-292h324l-21 -84h-303v-183q0 -213 -63 -288q23 4 42 6t42.5 -2t37 -5t45 -11.5t41 -13.5t51.5 -19.5t54 -20.5q170 -63 260 -1t90 220l29 -22q0 -143 -20.5 -211t-98.5 -113q-137 -78 -358 -16q-18 6 -81 25.5t-93.5 27.5t-80.5 16t-91 8 q-123 0 -209 -83q-29 -25 -52.5 -21t-39.5 27q-15 16 -12 38.5z" />
<glyph unicode="&#xa4;" horiz-adv-x="1150" d="M82 281l135 133q-90 119 -90 278q0 158 94 285l-139 141l76 72l133 -135q119 102 272 102q168 0 297 -108l135 135l74 -76l-137 -137q94 -123 94 -279q0 -158 -96 -280l133 -136l-76 -75l-133 135q-125 -98 -291 -98q-154 0 -272 96l-137 -133zM240 688q0 -139 94 -242.5 t227 -103.5q145 0 246.5 103.5t101.5 242.5q0 135 -101 235.5t-247 100.5q-133 0 -227 -100.5t-94 -235.5z" />
<glyph unicode="&#xa5;" horiz-adv-x="1441" d="M31 1608v30h508v-30l-125 -17q-29 -4 -2 -49l348 -592l397 600q8 18 3 28.5t-19 12.5l-125 17v30h395v-30l-108 -15q-23 -4 -50 -43l-424 -641h385l-20 -84h-365v-147h385l-20 -84h-365v-498q0 -47 17 -49l125 -16v-31h-508v31l125 16q16 2 16 49v498h-377l21 84h356v147 h-377l21 84h307l-373 633q-27 47 -43 51z" />
<glyph unicode="&#xa6;" horiz-adv-x="260" d="M82 -242v709h96v-709h-96zM82 842v708h96v-708h-96z" />
<glyph unicode="&#xa7;" horiz-adv-x="1183" d="M82 580q0 43 8 78.5t13.5 57t30 53.5t31.5 40t45 44t44 42q-152 131 -137 309q18 219 144 324.5t300 111.5q111 2 213.5 -34.5t157.5 -100.5q131 -137 69 -286q-25 -59 -84 -84t-112 -7q-76 29 -68 109q10 86 97 127q6 2 16 7t15 8t13.5 7.5t12.5 7.5t8 8t6 9t2 10 q0 86 -153.5 143.5t-280.5 22.5q-84 -29 -133 -110.5t-59 -176.5q-8 -72 19.5 -130t96 -111t122.5 -84t157 -82q86 -43 124 -63.5t105.5 -62.5t99 -76t61.5 -82t34 -101q10 -106 -37 -179t-150 -157q145 -106 148 -278q8 -170 -62.5 -281t-193.5 -162q-152 -59 -324 -30.5 t-268 126.5q-127 145 -70 289q27 61 87.5 86t113.5 4q74 -27 68 -106q-10 -88 -99 -129q-23 -10 -30 -14.5t-20 -13.5t-18 -16t-5 -18q-2 -66 93 -118t208 -56q152 2 239.5 98.5t87.5 221.5q0 68 -28.5 125t-104.5 115.5t-116.5 84t-153.5 86.5q-31 18 -47 27 q-162 90 -249 173t-87 194zM191.5 754.5q-15.5 -62.5 31.5 -126t116 -117.5t173 -118q72 -43 205 -114.5t166 -90.5q57 55 71.5 109.5t-4 100.5t-73 98.5t-115 94.5t-152.5 95q-256 145 -325 188q-78 -57 -93.5 -119.5z" />
<glyph unicode="&#xa8;" horiz-adv-x="800" d="M82 1432q0 -45 34 -79t81 -34q45 0 78.5 32.5t33.5 80t-33.5 81t-78.5 33.5t-80 -33.5t-35 -80.5zM496 1431.5q0 -47.5 31.5 -80t76.5 -32.5q49 0 82 32.5t33 80t-33 81t-82 33.5q-45 0 -76.5 -33.5t-31.5 -81z" />
<glyph unicode="&#xa9;" horiz-adv-x="1859" d="M72 811q0 356 251.5 606t606.5 250q356 0 607 -250t251 -606q0 -354 -251 -605t-607 -251q-354 0 -606 252t-252 604zM145 811q0 -317 233.5 -552.5t551.5 -235.5q319 0 552.5 235.5t233.5 552.5q0 319 -233.5 553.5t-552.5 234.5q-317 0 -551 -235.5t-234 -552.5z M489 803q0 205 128 353.5t327 148.5q37 0 78 -11.5t77 -26t48 -16.5q27 -12 35 35h30q-4 -29 0 -96l13 -160h-39q0 8 -2 22.5t-15.5 50.5t-35 63.5t-67.5 50t-110 22.5q-131 0 -203.5 -126t-76.5 -300q-4 -158 53 -281.5t162 -146.5q231 -53 309 127q16 39 21 74h36 q-14 -49 -14 -164l8 -92h-32q-10 35 -45 35q-2 0 -71 -27t-167 -27q-188 0 -317.5 145.5t-129.5 346.5z" />
<glyph unicode="&#xaa;" horiz-adv-x="604" d="M49 1106q-31 82 29 147l26 31l222 68v116q0 84 -23 107q-31 23 -69.5 21.5t-71.5 -21.5q-55 -35 -56 -80q18 16 41 16q20 0 34 -14t14 -39q0 -27 -17.5 -41t-42.5 -12q-49 0 -61 49q-23 78 51 139q49 39 125 45q182 10 182 -161v-281q0 -35 7 -72t16 -37h67v-28 q-98 0 -149 -35q-47 6 -47 53v47q-12 -39 -56.5 -69.5t-91.5 -30.5q-98 0 -129 82zM139.5 1150q28.5 -44 75.5 -52q23 -4 44.5 0t44 32.5t22.5 81.5v107l-187 -57q-28 -68 0.5 -112z" />
<glyph unicode="&#xab;" horiz-adv-x="811" d="M119 475q-35 29 0 57q166 145 270 283h35l-184 -311l184 -311h-35q-104 137 -270 282zM403 475q-33 29 0 57q166 145 271 283h35l-185 -311l185 -311h-35q-105 137 -271 282z" />
<glyph unicode="&#xac;" horiz-adv-x="1130" d="M82 530v107h967v-393h-107v286h-860z" />
<glyph unicode="&#xad;" horiz-adv-x="1011" d="M82 461h848v121h-848v-121z" />
<glyph unicode="&#xae;" horiz-adv-x="1859" d="M72 811q0 356 251.5 606t606.5 250q356 0 607 -250t251 -606q0 -354 -251 -605t-607 -251q-354 0 -606 252t-252 604zM145 811q0 -317 233.5 -552.5t551.5 -235.5q319 0 552.5 235.5t233.5 552.5q0 319 -233.5 553.5t-552.5 234.5q-317 0 -551 -235.5t-234 -552.5z M543 326v39l71 10q12 0 13 28v820q0 29 -13 28l-71 13v36l303 13q373 14 373 -230q0 -129 -69 -186t-192 -70q82 -6 150 -74.5t80 -181.5q8 -76 21.5 -119.5t45 -62t57 -21.5t85.5 -3l-13 -39q-309 -80 -368 151q-6 25 -9 89.5t-9.5 108.5t-41 88t-100.5 56h-55v-416 q0 -29 8 -28l76 -10v-39h-342zM801 866h28q215 0 215 209q0 70 -26.5 118t-64.5 64.5t-80 22.5t-72 -8v-406z" />
<glyph unicode="&#xaf;" horiz-adv-x="1011" d="M82 1374h848v121h-848v-121z" />
<glyph unicode="&#xb0;" horiz-adv-x="763" d="M82 1327q0 -125 84 -214t207 -89q131 0 220 88t89 215q0 125 -89 217t-220 92q-123 0 -207 -93t-84 -216zM184 1327q0 80 55.5 141.5t133.5 61.5q86 0 145.5 -60.5t59.5 -142.5q0 -80 -59.5 -139.5t-145.5 -59.5q-78 0 -133.5 59.5t-55.5 139.5z" />
<glyph unicode="&#xb1;" horiz-adv-x="1130" d="M82 0h967v106h-967v-106zM82 530v107h434v287h107v-287h426v-107h-426v-286h-107v286h-434z" />
<glyph unicode="&#xb2;" horiz-adv-x="710" d="M41 1057q401 168 401 366q0 100 -68.5 140.5t-154.5 15.5q-18 -4 -43.5 -22.5t-36 -41t12.5 -34.5q47 -27 47 -66q0 -53 -61.5 -53t-74.5 53q-23 90 60.5 156.5t183.5 66.5q117 0 176.5 -52t71.5 -124q6 -33 -2 -68.5t-37 -86t-105.5 -106.5t-191.5 -109h174 q111 0 154 26.5t43 89.5h39q-16 -92 -17 -127q0 -45 2 -57h-567z" />
<glyph unicode="&#xb3;" horiz-adv-x="559" d="M52.5 1127.5q-23.5 50.5 1 75t50.5 -2.5q14 -14 17.5 -59t44.5 -60q96 -35 153.5 9.5t53.5 119.5q-4 59 -48 105.5t-126 58.5l-29 17l223 186h-166q-63 0 -78.5 -11.5t-27.5 -62.5h-33q10 51 10 90l-2 45h367v-51l-205 -174q76 -2 147.5 -57.5t71.5 -143.5 q0 -68 -41 -114.5t-97 -62t-114.5 -13.5t-93.5 22q-55 33 -78.5 83.5z" />
<glyph unicode="&#xb4;" horiz-adv-x="548" d="M82 1167l154 351q8 18 34 18h189q16 0 8 -8l-8 -10l-342 -351h-35z" />
<glyph unicode="&#xb6;" horiz-adv-x="1165" d="M72 1241q0 397 493 397h498v-43q-39 0 -63.5 -4t-42 -14t-25.5 -25.5t-12.5 -39t-4.5 -55.5v-73v-51v-1130q-20 0 -37.5 -16.5t-34 -56.5t-29.5 -80t-37.5 -112.5t-47.5 -130.5q-37 -98 -122 -139t-179 -24q-92 16 -153.5 78.5t-55.5 148.5q4 51 43 82t90 35 q88 8 123 -56q29 -47 19.5 -106t-58.5 -90q133 -43 170 95t37 568v576l-184 -98q-131 0 -259 105t-128 259zM629 -242q27 0 111.5 246t115.5 246v1337h-156v-1276q0 -53 -2 -133t-19 -230.5t-50 -189.5z" />
<glyph unicode="&#xb7;" horiz-adv-x="405" d="M82 571.5q0 51.5 36 86t85 34.5q51 0 86 -34.5t35 -86t-35 -86t-86 -34.5q-49 0 -85 34.5t-36 86z" />
<glyph unicode="&#xb8;" horiz-adv-x="575" d="M82 -362l16 14q100 -61 158 -62q66 0 102.5 29t42.5 74q10 70 -48 133t-158 63l30 111h60l-29 -78q111 0 175.5 -65.5t62.5 -149.5q-2 -70 -50.5 -118t-138.5 -48q-112 1 -223 97z" />
<glyph unicode="&#xb9;" horiz-adv-x="438" d="M41 1524l2 37q131 0 190 59l14 13q3 3 8 6t5 -2t1 -12t1 -23v-488q0 -47 17 -49l77 -10v-31h-301v31l78 10q16 2 17 49v334q0 80 -13 80l-94 -4h-2z" />
<glyph unicode="&#xba;" horiz-adv-x="679" d="M41 1329q0 127 82 218t196 91q113 0 196 -91t83 -218q0 -125 -82 -215t-196.5 -90t-196.5 89t-82 216zM162 1333q0 -119 46 -197.5t111 -78.5q68 0 113 78.5t45 197.5q0 117 -45 195t-113 78q-66 0 -111.5 -78t-45.5 -195z" />
<glyph unicode="&#xbb;" horiz-adv-x="811" d="M102 193l185 311l-185 311h35q104 -137 271 -283q33 -29 0 -57q-166 -145 -271 -282h-35zM387 193l184 311l-184 311h35q104 -137 270 -283q33 -29 0 -57q-166 -145 -270 -282h-35z" />
<glyph unicode="&#xbc;" horiz-adv-x="1191" d="M82 -33l928 1702h100l-932 -1702h-96zM113 1364l2 37q131 0 190 59l13 14q3 3 8.5 6t5.5 -2t1 -12.5t1 -23.5v-488q0 -47 16 -49l78 -10v-31h-301v31l78 10q16 2 16 49v334q0 80 -12 80l-94 -4h-2zM623 401l307 430q8 10 17 11.5t17.5 -10t8.5 -31.5v-379h41q66 4 65 51 h21v-143h-21q0 6 -1 15t-16 24.5t-48 15.5h-41v-72q0 -47 16 -49l78 -10v-31h-301v31l78 10q16 2 16 47v74h-231zM684 422h176v248z" />
<glyph unicode="&#xbd;" horiz-adv-x="1271" d="M82 -33l928 1702h100l-932 -1702h-96zM106 1364l3 37q131 0 190 59l13 14q3 3 8.5 6t5.5 -2t1 -12.5t1 -23.5v-488q0 -47 16 -49l78 -10v-31h-301v31l78 10q16 2 16 49v334q0 80 -12 80l-94 -4h-3zM602 113q401 168 402 366q0 100 -69 140t-155 16q-18 -4 -43.5 -22.5 t-36 -41t12.5 -34.5q47 -27 47 -66q0 -53 -61.5 -53t-73.5 53q-23 90 60 156.5t183 66.5q117 0 176.5 -52t71.5 -124q6 -33 -2 -68.5t-36.5 -86t-105.5 -106.5t-192 -110h174q111 0 154 27t43 90h39q-16 -92 -16 -127q0 -45 2 -57h-568z" />
<glyph unicode="&#xbe;" horiz-adv-x="1261" d="M93.5 912.5q-23.5 50.5 1 75t50.5 -2.5q14 -14 17.5 -59t44.5 -60q86 -33 143.5 3t63.5 104q6 61 -39 116.5t-135 69.5l-29 17l223 186h-166q-63 0 -78.5 -11.5t-27.5 -62.5h-33q10 51 10 90l-2 45h367v-51l-205 -174q76 -2 147.5 -57.5t71.5 -143.5q0 -68 -41 -114.5 t-97 -62t-114.5 -13.5t-93.5 22q-55 33 -78.5 83.5zM152 -33l927 1702h101l-932 -1702h-96zM692 401l307 430q8 10 17.5 11.5t17.5 -10t8 -31.5v-379h41q66 4 66 51h20v-143h-20q0 6 -1 15t-16.5 24.5t-48.5 15.5h-41v-72q0 -47 17 -49l78 -10v-31h-301v31l77 10q16 2 17 47 v74h-232zM754 422h176v248z" />
<glyph unicode="&#xbf;" horiz-adv-x="1064" d="M83 -215.5q-1 63.5 22.5 112t58.5 88.5t88 78.5t105.5 73.5t116 84t112.5 98q55 55 34.5 114t-104.5 59q-10 43 11.5 71.5t58.5 32.5q43 8 83 -16.5t52 -77.5q16 -78 -18.5 -153t-88 -124t-132.5 -119.5t-117 -119.5q-72 -88 -84.5 -181.5t21.5 -165t101 -126.5 q100 -80 223.5 -88.5t223.5 73.5q31 29 29 56q0 20 -60 57q-76 45 -76 117q0 43 29 67.5t72 26.5q45 2 82 -22.5t49 -71.5q27 -102 -39 -199q-82 -121 -220 -164t-282 -8q-115 29 -202 103.5t-123 185.5q-25 75 -26 138.5zM485 921.5q0 51.5 35 86t86 34.5q49 0 85 -34.5 t36 -86t-36 -86t-85 -34.5q-51 0 -86 34.5t-35 86z" />
<glyph unicode="&#xc0;" d="M31 0v31l125 16q20 2 32 41l533 1550l35 27l557 -1569q16 -49 43 -51l108 -14v-31h-508v31l125 16q20 2 2 49l-147 420h-506l-145 -428q-12 -37 16 -41l125 -16v-31h-395zM432 2132q-20 18 0 18h189l34 -18l154 -350h-35zM453 582h460l-233 665z" />
<glyph unicode="&#xc1;" d="M31 0v31l125 16q20 2 32 41l533 1550l35 27l557 -1569q16 -49 43 -51l108 -14v-31h-508v31l125 16q20 2 2 49l-147 420h-506l-145 -428q-12 -37 16 -41l125 -16v-31h-395zM453 582h460l-233 665zM664 1782l153 350q8 18 35 18h188q16 0 9 -8l-9 -10l-342 -350h-34z" />
<glyph unicode="&#xc2;" d="M31 0v31l125 16q20 2 32 41l533 1550l35 27l557 -1569q16 -49 43 -51l108 -14v-31h-508v31l125 16q20 2 2 49l-147 420h-506l-145 -428q-12 -37 16 -41l125 -16v-31h-395zM453 582h460l-233 665zM485 1765l228 349q18 31 28 34q8 4 14.5 1t10.5 -7l4 -6l264 -371h-160 l-174 254l-170 -254h-45z" />
<glyph unicode="&#xc3;" d="M31 0v31l125 16q20 2 32 41l533 1550l35 27l557 -1569q16 -49 43 -51l108 -14v-31h-508v31l125 16q20 2 2 49l-147 420h-506l-145 -428q-12 -37 16 -41l125 -16v-31h-395zM412 1929l96 144q45 72 99.5 76.5t133.5 -29.5q8 -2 30 -10l34 -11q12 -4 34.5 -11t38 -11 t36 -7.5t35 -4.5t30.5 1t27.5 7.5t19.5 15.5l45 59l19 -14l-95 -137q-51 -74 -113.5 -80t-140.5 31q-6 2 -39.5 16t-60.5 22.5t-61.5 16.5t-62.5 2t-42 -27l-43 -63zM453 582h460l-233 665z" />
<glyph unicode="&#xc4;" d="M31 0v31l125 16q20 2 32 41l533 1550l35 27l557 -1569q16 -49 43 -51l108 -14v-31h-508v31l125 16q20 2 2 49l-147 420h-506l-145 -428q-12 -37 16 -41l125 -16v-31h-395zM430 2036q0 -45 34 -79t81 -34q45 0 78.5 34t33.5 79q0 47 -33.5 80.5t-78.5 33.5t-80 -34.5 t-35 -79.5zM453 582h460l-233 665zM844 2036q0 -47 31.5 -80t76.5 -33q49 0 82 33t33 80t-33 80.5t-82 33.5q-45 0 -76.5 -33.5t-31.5 -80.5z" />
<glyph unicode="&#xc5;" d="M31 0v31l125 16q20 2 32 41l533 1550l35 27l557 -1569q16 -49 43 -51l108 -14v-31h-508v31l125 16q20 2 2 49l-147 420h-506l-145 -428q-12 -37 16 -41l125 -16v-31h-395zM453 582h460l-233 665zM596 2009q0 -59 39 -100t96 -41q61 0 102 41t41 100q0 57 -41.5 100 t-101.5 43q-57 0 -96 -43t-39 -100zM643 2009q0 37 25.5 65.5t62.5 28.5q39 0 66.5 -28.5t27.5 -65.5t-27.5 -64.5t-66.5 -27.5q-37 0 -62.5 27.5t-25.5 64.5z" />
<glyph unicode="&#xc6;" horiz-adv-x="2416" d="M31 0v31l125 16q29 4 53 41l1083 1550h992q-14 -33 -15 -110q0 -49 8.5 -130t16.5 -138l6 -58h-47q0 373 -467 373h-217q-49 0 -49 -33v-631h280q135 0 168 213l6 78h43v-657h-43q2 12 2 32.5t-5 74t-20.5 93t-54 72.5t-96.5 33h-280v-725q0 -51 20 -62q33 -16 197 -16 q86 0 156.5 6t124 13.5t96.5 27t71.5 33.5t52 46t37 51.5t27.5 64.5t19.5 69.5t17.5 79.5h26q-14 -88 -14 -250q0 -41 4 -88t8 -73l2 -27h-1212v31l125 16q16 2 16 49v420h-684l-303 -428q-10 -16 -4 -27.5t21 -13.5l125 -16v-31h-418zM645 582h647v911z" />
<glyph unicode="&#xc7;" horiz-adv-x="1437" d="M72 811q0 227 96 423t276.5 315.5t407.5 119.5q63 0 133 -19.5t131.5 -44t79.5 -28.5q45 -16 59 55l2 6h48q-2 -6 -5.5 -17t-8.5 -53t1 -95l29 -271h-47v23q0 14 -7 54t-19.5 77t-42 82t-71.5 76.5t-110 54t-154 22.5q-172 0 -295.5 -116.5t-181 -291.5t-55.5 -378 q2 -276 112.5 -490.5t309.5 -253.5q156 -27 263 -1t172 88.5t99.5 127t44.5 113.5l13 49h34q-35 -172 -34 -280q0 -43 4 -82t8 -58l4 -18h-47q-2 6 -6 16.5t-23.5 27.5t-46.5 17q-20 0 -53 -14t-70 -31.5t-113.5 -32t-172.5 -14.5h-31l-31 -80q115 0 179.5 -69.5 t58.5 -157.5q-4 -66 -53.5 -110t-135.5 -44q-113 0 -223 97l16 14q100 -61 158 -61q66 0 103.5 29.5t42.5 74.5q8 70 -49.5 132.5t-157.5 62.5l32 118q-291 37 -482 278t-191 558z" />
<glyph unicode="&#xc8;" horiz-adv-x="1366" d="M102 0v31l125 16q16 2 17 49v1446q0 47 -17 49l-125 17v30h1131q-14 -33 -14 -110q0 -49 7 -130t15 -138l8 -58h-47q0 373 -467 373h-217q-49 0 -49 -33v-631h281q135 0 168 213l6 78h43v-657h-43q2 12 2 32.5t-5.5 74t-20.5 93t-54 72.5t-96 33h-281v-725q0 -51 20 -62 q33 -16 197 -16q86 0 156.5 6t124 13.5t96.5 27t71.5 33.5t52 46t37 51.5t28 64.5t19.5 69.5t17 79.5h27q-14 -88 -15 -250q0 -41 3.5 -88t7.5 -73l4 -27h-1213zM475 2132q-20 18 0 18h189l34 -18l154 -350h-35z" />
<glyph unicode="&#xc9;" horiz-adv-x="1366" d="M102 0v31l125 16q16 2 17 49v1446q0 47 -17 49l-125 17v30h1131q-14 -33 -14 -110q0 -49 7 -130t15 -138l8 -58h-47q0 373 -467 373h-217q-49 0 -49 -33v-631h281q135 0 168 213l6 78h43v-657h-43q2 12 2 32.5t-5.5 74t-20.5 93t-54 72.5t-96 33h-281v-725q0 -51 20 -62 q33 -16 197 -16q86 0 156.5 6t124 13.5t96.5 27t71.5 33.5t52 46t37 51.5t28 64.5t19.5 69.5t17 79.5h27q-14 -88 -15 -250q0 -41 3.5 -88t7.5 -73l4 -27h-1213zM643 1782l154 350q8 18 34 18h189q16 0 8 -8l-8 -10l-342 -350h-35z" />
<glyph unicode="&#xca;" horiz-adv-x="1366" d="M102 0v31l125 16q16 2 17 49v1446q0 47 -17 49l-125 17v30h1131q-14 -33 -14 -110q0 -49 7 -130t15 -138l8 -58h-47q0 373 -467 373h-217q-49 0 -49 -33v-631h281q135 0 168 213l6 78h43v-657h-43q2 12 2 32.5t-5.5 74t-20.5 93t-54 72.5t-96 33h-281v-725q0 -51 20 -62 q33 -16 197 -16q86 0 156.5 6t124 13.5t96.5 27t71.5 33.5t52 46t37 51.5t28 64.5t19.5 69.5t17 79.5h27q-14 -88 -15 -250q0 -41 3.5 -88t7.5 -73l4 -27h-1213zM426 1765l227 349q18 31 29 34q8 4 14 1t11 -7l4 -6l264 -371h-160l-174 254l-170 -254h-45z" />
<glyph unicode="&#xcb;" horiz-adv-x="1366" d="M102 0v31l125 16q16 2 17 49v1446q0 47 -17 49l-125 17v30h1131q-14 -33 -14 -110q0 -49 7 -130t15 -138l8 -58h-47q0 373 -467 373h-217q-49 0 -49 -33v-631h281q135 0 168 213l6 78h43v-657h-43q2 12 2 32.5t-5.5 74t-20.5 93t-54 72.5t-96 33h-281v-725q0 -51 20 -62 q33 -16 197 -16q86 0 156.5 6t124 13.5t96.5 27t71.5 33.5t52 46t37 51.5t28 64.5t19.5 69.5t17 79.5h27q-14 -88 -15 -250q0 -41 3.5 -88t7.5 -73l4 -27h-1213zM410 2036q0 -45 33.5 -79t80.5 -34q45 0 79 34t34 79q0 47 -34 80.5t-79 33.5t-79.5 -34.5t-34.5 -79.5z M823 2036q0 -47 32 -80t77 -33q49 0 82 33t33 80t-33 80.5t-82 33.5q-45 0 -77 -33.5t-32 -80.5z" />
<glyph unicode="&#xcc;" horiz-adv-x="712" d="M102 0v31l125 16q16 2 17 49v1446q0 47 -17 49l-125 17v30h508v-30l-125 -17q-16 -2 -16 -49v-1446q0 -47 16 -49l125 -16v-31h-508zM137 2132q-20 18 0 18h189l34 -18l154 -350h-35z" />
<glyph unicode="&#xcd;" horiz-adv-x="712" d="M102 0v31l125 16q16 2 17 49v1446q0 47 -17 49l-125 17v30h508v-30l-125 -17q-16 -2 -16 -49v-1446q0 -47 16 -49l125 -16v-31h-508zM225 1782l154 350q8 18 35 18h188q16 0 8 -8l-8 -10l-342 -350h-35z" />
<glyph unicode="&#xce;" horiz-adv-x="753" d="M102 1765l228 349q18 31 28 34q8 4 14.5 1t10.5 -7l4 -6l264 -371h-159l-175 254l-170 -254h-45zM123 0v31l125 16q16 2 16 49v1446q0 47 -16 49l-125 17v30h508v-30l-125 -17q-16 -2 -17 -49v-1446q0 -47 17 -49l125 -16v-31h-508z" />
<glyph unicode="&#xcf;" horiz-adv-x="841" d="M102 2036q0 -45 34 -79t81 -34q45 0 79 34t34 79q0 47 -34 80.5t-79 33.5t-80 -34.5t-35 -79.5zM168 0v31l125 16q16 2 16 49v1446q0 47 -16 49l-125 17v30h508v-30l-125 -17q-16 -2 -16 -49v-1446q0 -47 16 -49l125 -16v-31h-508zM516 2036q0 -47 32 -80t77 -33 q49 0 81.5 33t32.5 80t-32.5 80.5t-81.5 33.5q-45 0 -77 -33.5t-32 -80.5z" />
<glyph unicode="&#xd1;" horiz-adv-x="1501" d="M88 0v31l125 16q16 2 16 49v1417q0 51 -2 63.5t-12 14.5l-127 17v30h309l781 -1161v1065q0 47 -17 49l-125 17v30h377v-30l-125 -17q-16 -2 -16 -49v-1511q0 -31 -17 -31q-23 0 -61 61l-870 1272v-1237q0 -47 16 -49l125 -16v-31h-377zM408 1823l96 143q45 72 99 77 t134 -30q8 -2 30 -9l34 -11l34.5 -11.5t38 -11.5t36 -7t34.5 -4t30.5 1t28 7t19.5 15l45 60l18 -14l-94 -138q-51 -74 -113.5 -80t-140.5 31q-6 2 -39.5 16.5t-60.5 22.5t-61.5 16.5t-62.5 2t-42 -26.5l-43 -64z" />
<glyph unicode="&#xd2;" horiz-adv-x="1683" d="M72 819q0 354 226 602t543.5 248t544 -247.5t226.5 -602.5q0 -352 -226.5 -601t-544 -249t-543.5 249t-226 601zM309 819q0 -336 157 -558t376 -222t375.5 222t156.5 558t-156.5 558t-375.5 222t-376 -222t-157 -558zM535 2132q-20 18 0 18h188l35 -18l153 -350h-34z" />
<glyph unicode="&#xd3;" horiz-adv-x="1683" d="M72 819q0 354 226 602t543.5 248t544 -247.5t226.5 -602.5q0 -352 -226.5 -601t-544 -249t-543.5 249t-226 601zM309 819q0 -336 157 -558t376 -222t375.5 222t156.5 558t-156.5 558t-375.5 222t-376 -222t-157 -558zM725 1782l154 350q8 18 34 18h189q16 0 8 -8l-8 -10 l-342 -350h-35z" />
<glyph unicode="&#xd4;" horiz-adv-x="1683" d="M72 819q0 354 226 602t543.5 248t544 -247.5t226.5 -602.5q0 -352 -226.5 -601t-544 -249t-543.5 249t-226 601zM309 819q0 -336 157 -558t376 -222t375.5 222t156.5 558t-156.5 558t-375.5 222t-376 -222t-157 -558zM588 1765l227 349q18 31 29 34q8 4 14 1t10 -7l4 -6 l265 -371h-160l-174 254l-170 -254h-45z" />
<glyph unicode="&#xd5;" horiz-adv-x="1683" d="M72 819q0 354 226 602t543.5 248t544 -247.5t226.5 -602.5q0 -352 -226.5 -601t-544 -249t-543.5 249t-226 601zM309 819q0 -336 157 -558t376 -222t375.5 222t156.5 558t-156.5 558t-375.5 222t-376 -222t-157 -558zM514 1929l96 144q45 72 99.5 76.5t134.5 -29.5 q8 -2 29 -10l34 -11q12 -4 35 -11t38 -11t35.5 -7.5t35 -4.5t31 1t27.5 7.5t19 15.5l46 59l18 -14l-94 -137q-51 -74 -113.5 -80t-140.5 31q-6 2 -40 16t-60.5 22.5t-61.5 16.5t-62.5 2t-41.5 -27l-43 -63z" />
<glyph unicode="&#xd6;" horiz-adv-x="1683" d="M72 819q0 354 226 602t543.5 248t544 -247.5t226.5 -602.5q0 -352 -226.5 -601t-544 -249t-543.5 249t-226 601zM309 819q0 -336 157 -558t376 -222t375.5 222t156.5 558t-156.5 558t-375.5 222t-376 -222t-157 -558zM528 2036q0 -45 34 -79t81 -34q45 0 79 34t34 79 q0 47 -34 80.5t-79 33.5t-80 -34.5t-35 -79.5zM942 2036q0 -47 32 -80t77 -33q49 0 81.5 33t32.5 80t-32.5 80.5t-81.5 33.5q-45 0 -77 -33.5t-32 -80.5z" />
<glyph unicode="&#xd7;" horiz-adv-x="1150" d="M82 162l420 411l-420 426l76 72l417 -424l420 418l74 -76l-418 -414l412 -417l-76 -76l-409 416l-424 -416z" />
<glyph unicode="&#xd8;" horiz-adv-x="1683" d="M72 819q0 354 226 602t544 248q178 0 338 -86l47 86h100l-72 -133q164 -115 260.5 -304.5t96.5 -412.5q0 -352 -226.5 -601t-543.5 -249q-207 0 -383 113l-64 -115h-96l90 166q-147 117 -232 297t-85 389zM309 819q0 -330 154 -553l661 1217q-127 117 -282 116 q-219 0 -376 -222t-157 -558zM520 195q143 -156 322 -156q219 0 375.5 222t156.5 558q0 365 -186 596z" />
<glyph unicode="&#xd9;" horiz-adv-x="1603" d="M102 1608v30h508v-30l-125 -17q-16 -2 -16 -49v-768q0 -113 2 -177.5t9 -152.5t22.5 -136t43 -104.5t68.5 -84t101.5 -47t140.5 -19.5q233 0 328.5 152.5t95.5 417.5v919q0 47 -16 49l-125 17v30h377v-30l-125 -17q-14 -2 -15 -39v-10v-958q0 -610 -528 -611 q-117 0 -209 20.5t-154.5 55.5t-107.5 93.5t-70.5 119t-40 149.5t-18.5 167.5t-4 191.5v772q0 47 -17 49zM545 2132q-20 18 0 18h188l35 -18l154 -350h-35z" />
<glyph unicode="&#xda;" horiz-adv-x="1603" d="M102 1608v30h508v-30l-125 -17q-16 -2 -16 -49v-768q0 -113 2 -177.5t9 -152.5t22.5 -136t43 -104.5t68.5 -84t101.5 -47t140.5 -19.5q233 0 328.5 152.5t95.5 417.5v919q0 47 -16 49l-125 17v30h377v-30l-125 -17q-14 -2 -15 -39v-10v-958q0 -610 -528 -611 q-117 0 -209 20.5t-154.5 55.5t-107.5 93.5t-70.5 119t-40 149.5t-18.5 167.5t-4 191.5v772q0 47 -17 49zM735 1782l154 350q8 18 35 18h188q14 0 6 -8l-6 -10l-342 -350h-35z" />
<glyph unicode="&#xdb;" horiz-adv-x="1603" d="M102 1608v30h508v-30l-125 -17q-16 -2 -16 -49v-768q0 -113 2 -177.5t9 -152.5t22.5 -136t43 -104.5t68.5 -84t101.5 -47t140.5 -19.5q233 0 328.5 152.5t95.5 417.5v919q0 47 -16 49l-125 17v30h377v-30l-125 -17q-14 -2 -15 -39v-10v-958q0 -610 -528 -611 q-117 0 -209 20.5t-154.5 55.5t-107.5 93.5t-70.5 119t-40 149.5t-18.5 167.5t-4 191.5v772q0 47 -17 49zM590 1765l227 349q18 31 29 34q8 4 14 1t10 -7l4 -6l265 -371h-160l-174 254l-170 -254h-45z" />
<glyph unicode="&#xdc;" horiz-adv-x="1603" d="M102 1608v30h508v-30l-125 -17q-16 -2 -16 -49v-768q0 -113 2 -177.5t9 -152.5t22.5 -136t43 -104.5t68.5 -84t101.5 -47t140.5 -19.5q233 0 328.5 152.5t95.5 417.5v919q0 47 -16 49l-125 17v30h377v-30l-125 -17q-14 -2 -15 -39v-10v-958q0 -610 -528 -611 q-117 0 -209 20.5t-154.5 55.5t-107.5 93.5t-70.5 119t-40 149.5t-18.5 167.5t-4 191.5v772q0 47 -17 49zM481 2036q0 -45 34 -79t81 -34t80 34t33 79q0 47 -34 80.5t-79 33.5q-47 0 -81 -34.5t-34 -79.5zM895 2036q0 -47 31.5 -80t77.5 -33q49 0 81.5 33t32.5 80 t-32.5 80.5t-81.5 33.5q-45 0 -77 -33.5t-32 -80.5z" />
<glyph unicode="&#xdd;" horiz-adv-x="1441" d="M31 1608v30h508v-30l-125 -17q-29 -4 -2 -49l348 -592l397 600q8 18 3 28.5t-19 12.5l-125 17v30h395v-30l-108 -15q-23 -4 -50 -43l-424 -641v-813q0 -47 17 -49l125 -16v-31h-508v31l125 16q16 2 16 49v729l-422 717q-27 47 -43 51zM684 1782l154 350q8 18 34 18h189 q16 0 8 -8l-8 -10l-342 -350h-35z" />
<glyph unicode="&#xdf;" horiz-adv-x="1239" d="M72 0v31l125 16q16 2 16 49v928q0 129 23.5 238.5t73.5 204t142.5 148.5t217.5 54q174 0 293.5 -93t119.5 -241q0 -143 -111.5 -239.5t-264.5 -120.5q209 -16 329.5 -137t120.5 -355q0 -221 -117.5 -367.5t-300.5 -146.5q-102 0 -182 74t-49 166q10 33 36.5 50t57.5 17 q70 0 70 -65q0 -53 -54 -84q-43 -25 -43 -39q2 -39 48.5 -63.5t107.5 -24.5q100 0 155.5 149.5t55.5 325.5q0 252 -86 367.5t-285 115.5l19 37q297 2 297 367q0 276 -203 276q-281 0 -281 -551v-1087h-331z" />
<glyph unicode="&#xe0;" horiz-adv-x="974" d="M81 204q3 95 69 171l32 33l406 127v219q0 160 -45 204q-53 45 -122 41t-126 -41q-113 -74 -113 -159q16 37 82 37q37 0 63.5 -28t26.5 -71q0 -49 -32.5 -73.5t-77.5 -20.5q-82 4 -107 86q-39 133 96 246q88 70 218 78q328 23 327 -283v-518q0 -61 10.5 -125t22.5 -64h123 v-30q-172 0 -264 -64q-82 14 -82 94v80q-20 -70 -100 -122t-162 -52q-115 0 -181.5 70t-63.5 165zM225 1518q-20 18 0 18h189l35 -18l153 -351h-35zM238.5 236.5q15.5 -66.5 57.5 -106.5t91 -48q23 -8 56.5 -1t65.5 22.5t55.5 62.5t23.5 117v206l-326 -100 q-39 -86 -23.5 -152.5z" />
<glyph unicode="&#xe1;" horiz-adv-x="974" d="M81 204q3 95 69 171l32 33l406 127v219q0 160 -45 204q-53 45 -122 41t-126 -41q-113 -74 -113 -159q16 37 82 37q37 0 63.5 -28t26.5 -71q0 -45 -29.5 -70.5t-70.5 -25.5q-90 4 -117 88q-39 133 96 246q88 70 218 78q328 23 327 -283v-518q0 -61 10.5 -125t22.5 -64h123 v-30q-172 0 -264 -64q-82 14 -82 94v80q-20 -70 -100 -122t-162 -52q-115 0 -181.5 70t-63.5 165zM238.5 236.5q15.5 -66.5 57.5 -106.5t91 -48q23 -8 56.5 -1t65.5 22.5t55.5 62.5t23.5 117v206l-326 -100q-39 -86 -23.5 -152.5zM338 1167l154 351q8 18 34 18h189 q14 0 6 -8l-6 -10l-342 -351h-35z" />
<glyph unicode="&#xe2;" horiz-adv-x="974" d="M81 204q3 95 69 171l32 33l406 127v219q0 160 -45 204q-53 45 -122 41t-126 -41q-113 -74 -113 -159q16 37 82 37q37 0 63.5 -28t26.5 -71q0 -45 -29.5 -70.5t-70.5 -25.5q-37 0 -70.5 23.5t-46.5 64.5q-39 133 96 246q88 70 218 78q328 23 327 -283v-518 q0 -61 10.5 -125t22.5 -64h123v-30q-172 0 -264 -64q-82 14 -82 94v80q-20 -70 -100 -122t-162 -52q-115 0 -181.5 70t-63.5 165zM231 1186l228 348q18 31 28 35q8 4 14.5 1t10.5 -9l4 -5l264 -370h-159l-175 254l-170 -254h-45zM238.5 236.5q15.5 -66.5 57.5 -106.5t91 -48 q23 -8 56.5 -1t65.5 22.5t55.5 62.5t23.5 117v206l-326 -100q-39 -86 -23.5 -152.5z" />
<glyph unicode="&#xe3;" horiz-adv-x="974" d="M81 204q3 95 69 171l32 33l406 127v219q0 160 -45 204q-53 45 -122 41t-126 -41q-113 -74 -113 -159q16 37 82 37q37 0 63.5 -28t26.5 -71t-28.5 -68.5t-67.5 -27.5q-39 0 -73.5 22.5t-47.5 65.5q-39 133 96 246q88 70 218 78q328 23 327 -283v-518q0 -61 10.5 -125 t22.5 -64h123v-30q-172 0 -264 -64q-82 14 -82 94v80q-20 -70 -100 -122t-162 -52q-115 0 -181.5 70t-63.5 165zM137 1315l96 143q51 78 109 78q35 0 125 -31q8 -2 30 -9l33 -11q12 -4 35 -11.5t38 -11.5t35.5 -7t35 -4t31 1t27.5 7t20 16l45 59l18 -14l-94 -138 q-57 -82 -127 -82q-39 0 -127 33q-6 2 -40 16.5t-60.5 22.5t-61.5 16.5t-62.5 2t-41.5 -26.5l-43 -64zM238.5 236.5q15.5 -66.5 57.5 -106.5t91 -48q23 -8 56.5 -1t65.5 22.5t55.5 62.5t23.5 117v206l-326 -100q-39 -86 -23.5 -152.5z" />
<glyph unicode="&#xe4;" horiz-adv-x="974" d="M81 204q3 95 69 171l32 33l406 127v219q0 160 -45 204q-53 45 -122 41t-126 -41q-113 -74 -113 -159q16 37 82 37q37 0 63.5 -28t26.5 -71q0 -47 -30.5 -72.5t-75.5 -23.5q-86 8 -111 88q-39 133 96 246q88 70 218 78q328 23 327 -283v-518q0 -61 10.5 -125t22.5 -64h123 v-30q-172 0 -264 -64q-82 14 -82 94v80q-20 -70 -100 -122t-162 -52q-115 0 -181.5 70t-63.5 165zM137 1432q0 -45 34 -79t81 -34t80 32.5t33 80t-34 81t-79 33.5q-47 0 -81 -33.5t-34 -80.5zM238.5 236.5q15.5 -66.5 57.5 -106.5t91 -48q23 -8 56.5 -1t65.5 22.5t55.5 62.5 t23.5 117v206l-326 -100q-39 -86 -23.5 -152.5zM551 1431.5q0 -47.5 31.5 -80t76.5 -32.5q49 0 82 32.5t33 80t-32.5 81t-82.5 33.5q-45 0 -76.5 -33.5t-31.5 -81z" />
<glyph unicode="&#xe5;" horiz-adv-x="974" d="M81 204q3 95 69 171l32 33l406 127v219q0 160 -45 204q-53 45 -122 41t-126 -41q-113 -74 -113 -159q16 37 82 37q37 0 63.5 -28t26.5 -71q0 -45 -29.5 -70.5t-70.5 -25.5q-37 0 -70.5 23.5t-46.5 64.5q-39 133 96 246q88 70 218 78q328 23 327 -283v-518 q0 -61 10.5 -125t22.5 -64h123v-30q-172 0 -264 -64q-82 14 -82 94v80q-20 -70 -100 -122t-162 -52q-115 0 -181.5 70t-63.5 165zM238.5 236.5q15.5 -66.5 57.5 -106.5t91 -48q23 -8 56.5 -1t65.5 22.5t55.5 62.5t23.5 117v206l-326 -100q-39 -86 -23.5 -152.5zM348 1393 q0 -59 39 -100.5t96 -41.5q61 0 102.5 41t41.5 101q0 57 -42 100t-102 43q-57 0 -96 -43t-39 -100zM395 1393q0 37 25.5 65.5t62.5 28.5q39 0 67 -28.5t28 -65.5t-28 -65t-67 -28q-37 0 -62.5 28t-25.5 65z" />
<glyph unicode="&#xe6;" horiz-adv-x="1449" d="M79 201q3 92 66 161l33 33l406 127v232q0 160 -45 204q-53 45 -122 41t-126 -41q-113 -74 -113 -159q16 37 82 37q37 0 63.5 -28t26.5 -71t-27.5 -68.5t-68.5 -27.5q-39 0 -74 22.5t-47 65.5q-39 133 96 246q88 70 217 78q186 14 271 -84q119 102 289 102q104 0 186 -41 t124 -100.5t62.5 -113.5t20.5 -95q0 -8 -19 -14l-643 -193q0 -61 17 -154q66 -301 331 -301q188 0 283 238l31 -33q-2 -16 -10.5 -40.5t-35 -69.5t-66.5 -81t-113.5 -63.5t-167.5 -27.5q-258 0 -392 213q-23 -98 -113.5 -162t-178.5 -64q-115 0 -180.5 70t-62.5 162z M255 181q48 -85 128 -99q23 -8 56.5 -1t65.5 22.5t55.5 62.5t23.5 117v194l-326 -100q-51 -111 -3 -196zM733 561l477 141q0 23 -1 46.5t-13 78t-32.5 93t-66.5 70.5t-108 32q-80 0 -135 -47t-77.5 -115.5t-34 -136.5t-9.5 -115v-47z" />
<glyph unicode="&#xe7;" horiz-adv-x="987" d="M61 477q2 217 129 387t347 193q154 14 281.5 -72t99.5 -215q-10 -45 -47 -65.5t-80 -12.5q-35 6 -57.5 31t-22.5 63q0 45 45 101q25 33 -3 70.5t-89.5 54t-143.5 -1.5q-141 -39 -209.5 -185.5t-56.5 -326.5q12 -193 109.5 -328t252.5 -129q59 2 108.5 25.5t77 48 t53.5 67.5t31 55.5t15 41.5l35 -31l-6 -21q-6 -20 -10.5 -29.5t-14.5 -33t-20.5 -37.5t-27.5 -36.5t-35.5 -38t-45 -33t-56.5 -28.5t-70 -19.5t-83 -10.5l-28 -78q111 0 175 -66.5t62 -150.5q-2 -70 -51 -117t-137 -47q-113 0 -223 97l16 14q100 -61 158 -62q68 0 104.5 32 t40.5 79q4 70 -53.5 129t-153.5 59l31 111q-215 10 -332 159.5t-115 356.5z" />
<glyph unicode="&#xe8;" horiz-adv-x="985" d="M61 498q-2 225 126 392t354 167q84 0 154.5 -29t113.5 -72t72.5 -94t41 -94t11.5 -74q0 -8 -19 -14l-643 -193q0 -49 17 -141q66 -301 332 -301q188 0 282 238l31 -33q-2 -16 -10.5 -41t-35 -70t-66.5 -80.5t-113.5 -63.5t-167.5 -28q-225 0 -350.5 157t-129.5 374z M268 535l477 141q0 14 -1 35.5t-13 79t-32.5 101.5t-66.5 80t-108 36q-199 0 -245 -293q-15 -96 -11 -180zM272 1518q-20 18 0 18h189l35 -18l153 -351h-35z" />
<glyph unicode="&#xe9;" horiz-adv-x="985" d="M61 504q0 223 128 388t352 165q84 0 154.5 -29t113.5 -72t72.5 -94t41 -94t11.5 -74q0 -8 -19 -14l-643 -193q0 -49 17 -141q66 -301 332 -301q188 0 282 238l31 -33q-2 -16 -10.5 -41t-35 -70t-66.5 -80.5t-113.5 -63.5t-167.5 -28q-227 0 -353.5 159t-126.5 378z M268 535l477 141q0 14 -1 35.5t-13 79t-32.5 101.5t-66.5 80t-108 36q-199 0 -245 -293q-15 -96 -11 -180zM344 1167l154 351q8 18 34 18h189q16 0 8 -8l-8 -10l-342 -351h-35z" />
<glyph unicode="&#xea;" horiz-adv-x="985" d="M61 516q4 219 131 380t349 161q84 0 154.5 -29t113.5 -72t72.5 -94t41 -94t11.5 -74q0 -8 -19 -14l-643 -193q0 -49 17 -141q66 -301 332 -301q188 0 282 238l31 -33q-2 -16 -10.5 -41t-35 -70t-66.5 -80.5t-113.5 -63.5t-167.5 -28q-156 0 -268.5 81t-163 203t-48.5 265 zM258 1186l227 348q18 31 29 35q8 4 14.5 1t10.5 -9l4 -5l264 -370h-160l-174 254l-170 -254h-45zM268 535l477 141q0 14 -1 35.5t-13 79t-32.5 101.5t-66.5 80t-108 36q-199 0 -245 -293q-15 -96 -11 -180z" />
<glyph unicode="&#xeb;" horiz-adv-x="985" d="M61 496q-2 143 49.5 268t164 209t266.5 84q84 0 154.5 -29t113.5 -72t72.5 -94t41 -94t11.5 -74q0 -8 -19 -14l-643 -193q0 -49 17 -141q66 -301 332 -301q188 0 282 238l31 -33q-2 -16 -10.5 -41t-35 -70t-66.5 -80.5t-113.5 -63.5t-167.5 -28q-225 0 -350.5 156 t-129.5 373zM223 1432q0 -45 34 -79t81 -34t80 32.5t33 80t-34 81t-79 33.5q-47 0 -81 -33.5t-34 -80.5zM268 535l477 141q0 14 -1 35.5t-13 79t-32.5 101.5t-66.5 80t-108 36q-199 0 -245 -293q-15 -96 -11 -180zM637 1431.5q0 -47.5 31.5 -80t76.5 -32.5q49 0 82 32.5 t33 80t-32.5 81t-82.5 33.5q-45 0 -76.5 -33.5t-31.5 -81z" />
<glyph unicode="&#xec;" horiz-adv-x="622" d="M61 1518q-20 18 0 18h189l35 -18l153 -351h-35zM86 942v47q68 0 128 14.5t108.5 34t60.5 21.5q27 6 38 -10.5t11 -67.5v-885q0 -47 17 -49l124 -16v-31h-473v31l125 16q16 2 17 49v649q0 201 -31 201z" />
<glyph unicode="&#xed;" horiz-adv-x="618" d="M57 942v47q70 0 132.5 15.5t108.5 34t60 20.5q25 4 35 -11.5t10 -66.5v-885q0 -47 17 -49l125 -16v-31h-473v31l125 16q16 2 16 49v649q0 201 -31 201zM186 1167l154 351q8 18 35 18h188q14 0 6 -8l-6 -10l-342 -351h-35z" />
<glyph unicode="&#xee;" horiz-adv-x="620" d="M41 1186l227 348q18 31 29 35q8 4 14 1t11 -9l4 -5l264 -370h-160l-174 254l-170 -254h-45zM59 942v47q72 0 135.5 15.5t109.5 35t61 21.5q23 4 32 -14.5t9 -65.5v-885q0 -47 16 -49l125 -16v-31h-473v31l125 16q16 2 16 49v649q0 201 -31 201z" />
<glyph unicode="&#xef;" horiz-adv-x="620" d="M-10 1432q0 -45 33.5 -79t81 -34t80 32.5t32.5 80t-33.5 81t-79.5 33.5q-47 0 -80.5 -33.5t-33.5 -80.5zM66 942v47q102 0 204.5 36t108.5 36q33 0 33 -80v-885q0 -47 16 -49l125 -16v-31h-473v31l125 16q16 2 16 49v649q0 201 -31 201zM403 1431.5q0 -47.5 32 -80 t77 -32.5q49 0 82 32.5t33 80t-33 81t-82 33.5q-45 0 -77 -33.5t-32 -81z" />
<glyph unicode="&#xf1;" horiz-adv-x="1193" d="M61 942v47q72 0 135.5 15.5t107.5 33t58 19.5q25 4 35.5 -16.5t10.5 -79.5l313 94q115 0 203 -83t88 -272v-604q0 -47 16 -49l125 -16v-31h-473v31l125 16q16 2 16 49v543q0 180 -43 248.5t-151 68.5q-57 0 -100.5 -20.5t-65 -47t-34.5 -62t-16 -58.5t-3 -41v-631 q0 -47 16 -49l125 -16v-31h-473v31l125 16q16 2 16 49v647q0 203 -31 203zM276 1315l97 143q45 72 99 77t134 -30q8 -2 30 -9l34 -11l34.5 -11.5t38 -11.5t36 -7t34.5 -4t30.5 1t28 7t19.5 16l45 59l18 -14l-94 -138q-51 -74 -113.5 -80t-140.5 31q-6 2 -40 16.5t-60.5 22.5 t-61 16.5t-62.5 2t-42 -26.5l-43 -64z" />
<glyph unicode="&#xf2;" horiz-adv-x="1122" d="M61 508q0 229 146.5 390t353.5 161t353.5 -161t146.5 -390q0 -225 -147.5 -387t-352.5 -162t-352.5 162t-147.5 387zM281 514q0 -215 81.5 -364.5t198.5 -149.5t199 149.5t82 364.5t-82 362.5t-199 147.5t-198.5 -147.5t-81.5 -362.5zM295 1518q-20 18 0 18h188l35 -18 l154 -351h-35z" />
<glyph unicode="&#xf3;" horiz-adv-x="1122" d="M61 508q0 229 146.5 390t353.5 161t353.5 -161t146.5 -390q0 -225 -147.5 -387t-352.5 -162t-352.5 162t-147.5 387zM281 514q0 -215 81.5 -364.5t198.5 -149.5t199 149.5t82 364.5t-82 362.5t-199 147.5t-198.5 -147.5t-81.5 -362.5zM416 1167l153 351q8 18 35 18h189 q14 0 6 -8l-6 -10l-342 -351h-35z" />
<glyph unicode="&#xf4;" horiz-adv-x="1122" d="M61 508q0 229 146.5 390t353.5 161t353.5 -161t146.5 -390q0 -225 -147.5 -387t-352.5 -162t-352.5 162t-147.5 387zM281 514q0 -215 81.5 -364.5t198.5 -149.5t199 149.5t82 364.5t-82 362.5t-199 147.5t-198.5 -147.5t-81.5 -362.5zM309 1186l228 348q18 31 28 35 q8 4 14.5 1t10.5 -9l4 -5l264 -370h-160l-174 254l-170 -254h-45z" />
<glyph unicode="&#xf5;" horiz-adv-x="1122" d="M61 508q0 229 146.5 390t353.5 161t353.5 -161t146.5 -390q0 -225 -147.5 -387t-352.5 -162t-352.5 162t-147.5 387zM233 1315l97 143q45 72 99 77t134 -30q8 -2 30 -9l34 -11l34.5 -11.5t38 -11.5t36 -7t34.5 -4t30.5 1t28 7t19.5 16l45 59l18 -14l-94 -138 q-51 -74 -113.5 -80t-140.5 31q-6 2 -40 16.5t-60.5 22.5t-61 16.5t-62.5 2t-42 -26.5l-43 -64zM281 514q0 -215 81.5 -364.5t198.5 -149.5t199 149.5t82 364.5t-82 362.5t-199 147.5t-198.5 -147.5t-81.5 -362.5z" />
<glyph unicode="&#xf6;" horiz-adv-x="1122" d="M61 508q0 229 146.5 390t353.5 161t353.5 -161t146.5 -390q0 -225 -147.5 -387t-352.5 -162t-352.5 162t-147.5 387zM252 1432q0 -45 33.5 -79t81 -34t80 32.5t32.5 80t-33.5 81t-78.5 33.5q-47 0 -81 -33.5t-34 -80.5zM281 514q0 -215 81.5 -364.5t198.5 -149.5 t199 149.5t82 364.5t-82 362.5t-199 147.5t-198.5 -147.5t-81.5 -362.5zM666 1431.5q0 -47.5 31.5 -80t76.5 -32.5q49 0 82 32.5t33 80t-33 81t-82 33.5q-45 0 -76.5 -33.5t-31.5 -81z" />
<glyph unicode="&#xf7;" horiz-adv-x="1130" d="M82 526h967v107h-967v-107zM444 188.5q0 51.5 36 86t85 34.5q51 0 86 -34.5t35 -86t-35 -86t-86 -34.5q-49 0 -85 34.5t-36 86zM444 1005.5q0 51.5 36 86t85 34.5q51 0 86 -34.5t35 -86t-35 -86t-86 -34.5q-49 0 -85 34.5t-36 86z" />
<glyph unicode="&#xf8;" horiz-adv-x="1128" d="M61 508q0 229 146.5 390t353.5 161q170 0 309 -119l97 119h100l-141 -174q135 -158 135 -377q0 -225 -147.5 -387t-352.5 -162q-166 0 -301 113l-86 -105h-96l127 156q-144 164 -144 385zM281 514q0 -141 36 -254l465 571q-84 193 -221 193q-117 0 -198.5 -147.5 t-81.5 -362.5zM348 180q84 -180 213 -180q117 0 199 149.5t82 364.5q0 129 -31 234z" />
<glyph unicode="&#xf9;" horiz-adv-x="1204" d="M41 946v45q109 0 211 36t108 36q29 -2 29 -84v-578q0 -199 43 -278.5t150 -79.5q72 0 123 28.5t72.5 73.5t29.5 80t8 68v424q0 236 -33 235q-74 0 -123 -6v45q106 0 208 36t108 36q31 0 31 -84v-694q6 -195 36 -195l121 4v-41q-104 0 -181 -21.5t-111.5 -43t-36.5 -21.5 q-14 0 -19.5 18.5t-5.5 73.5l-320 -92q-51 4 -84.5 10.5t-76.5 29t-69 60t-43 107.5t-17 168v375q0 236 -33 235q-76 0 -125 -6zM295 1518q-20 18 0 18h188l35 -18l154 -351h-35z" />
<glyph unicode="&#xfa;" horiz-adv-x="1204" d="M41 946v45q109 0 211 36t108 36q29 -2 29 -84v-578q0 -199 43 -278.5t150 -79.5q72 0 123 28.5t72.5 73.5t29.5 80t8 68v424q0 236 -33 235q-74 0 -123 -6v45q106 0 208 36t110 36q29 -2 29 -84v-694q6 -195 36 -195l121 4v-41q-104 0 -181 -21.5t-111.5 -43t-36.5 -21.5 q-14 0 -19.5 18.5t-5.5 73.5l-320 -92q-51 4 -84.5 10.5t-76.5 29t-69 60t-43 107.5t-17 168v375q0 236 -33 235q-76 0 -125 -6zM514 1167l154 351q8 18 34 18h189q14 0 6 -8l-6 -10l-342 -351h-35z" />
<glyph unicode="&#xfb;" horiz-adv-x="1204" d="M41 946v45q76 0 141.5 15.5t109.5 34t58 20.5q23 4 31 -13.5t8 -68.5v-578q0 -199 43 -278.5t150 -79.5q72 0 123 28.5t72.5 73.5t29.5 80t8 68v424q0 236 -33 235q-74 0 -123 -6v45q74 0 136.5 15.5t109.5 35t58 21.5q25 4 34 -13.5t9 -70.5v-694q6 -195 36 -195l121 4 v-41q-104 0 -181 -21.5t-111.5 -43t-36.5 -21.5q-14 0 -19.5 18.5t-5.5 73.5l-320 -92q-51 4 -84.5 10.5t-76.5 29t-69 60t-43 107.5t-17 168v375q0 236 -33 235q-76 0 -125 -6zM322 1186l227 348q18 31 29 35q8 4 14 1t10 -9l4 -5l264 -370h-159l-174 254l-170 -254h-45z " />
<glyph unicode="&#xfc;" horiz-adv-x="1204" d="M41 946v45q109 0 213 37l102 35q33 0 33 -84v-578q0 -199 43 -278.5t150 -79.5q72 0 123 28.5t72.5 73.5t29.5 80t8 68v424q0 236 -33 235q-74 0 -123 -6v45q109 0 209.5 36t108.5 36q29 -2 29 -84v-694q6 -195 36 -195l121 4v-41q-104 0 -181 -21.5t-111.5 -43 t-36.5 -21.5q-14 0 -19.5 18.5t-5.5 73.5l-320 -92q-51 4 -84.5 10.5t-76.5 29t-69 60t-43 107.5t-17 168v375q0 236 -33 235q-76 0 -125 -6zM260 1432q0 -45 34 -79t81 -34t79.5 32.5t32.5 80t-33.5 81t-78.5 33.5q-47 0 -81 -33.5t-34 -80.5zM674 1431.5q0 -47.5 31.5 -80 t76.5 -32.5q49 0 82 32.5t33 80t-33 81t-82 33.5q-45 0 -76.5 -33.5t-31.5 -81z" />
<glyph unicode="&#xfd;" horiz-adv-x="1107" d="M41 993v31h473v-31l-125 -16q-20 -4 -10 -29l239 -706l226 700q8 31 -21 35l-125 16v31h369v-31l-125 -16q-31 -4 -47 -47l-442 -1379q-23 -74 -72 -106.5t-109 -28.5q-68 8 -111.5 59.5t-31.5 123.5q14 84 102 84q49 0 77 -42t16 -94q-16 -66 -95 -65q39 -31 94.5 -13.5 t75.5 89.5l131 405l-325 965q-14 45 -39 49zM514 1167l154 351q8 18 34 18h189q14 0 6 -8l-6 -10l-342 -351h-35z" />
<glyph unicode="&#xff;" horiz-adv-x="1107" d="M41 993v31h473v-31l-125 -16q-20 -4 -10 -29l239 -706l226 700q8 31 -21 35l-125 16v31h369v-31l-125 -16q-31 -4 -47 -47l-442 -1379q-23 -74 -72 -106.5t-109 -28.5q-68 8 -111.5 60.5t-31.5 122.5q14 84 102 84q49 0 77 -42t16 -94q-16 -66 -95 -65q39 -31 94.5 -13.5 t75.5 89.5l131 405l-325 965q-14 45 -39 49zM250 1432q0 -45 33.5 -79t81.5 -34q45 0 78.5 32.5t33.5 80t-33.5 81t-79 33.5t-80 -33.5t-34.5 -80.5zM664 1431.5q0 -47.5 31.5 -80t76.5 -32.5q49 0 82 32.5t33 80t-33 81t-82 33.5q-45 0 -76.5 -33.5t-31.5 -81z" />
<glyph unicode="&#x152;" horiz-adv-x="2322" d="M72 819q0 350 225 584.5t545 234.5h1347q-14 -33 -14 -110q0 -49 8 -130t17 -138l6 -58h-47q0 373 -467 373h-217q-49 0 -50 -33v-631h281q135 0 168 213l6 78h43v-657h-43q2 12 2 32.5t-5 74t-20.5 93t-54.5 72.5t-96 33h-281v-725q0 -51 21 -62q33 -16 196 -16 q86 0 157 6t124 13.5t96 27t72 33.5t52.5 46t36.5 51.5t27.5 64.5t19.5 69.5t18 79.5h26q-14 -88 -14 -250q0 -41 4 -88t8 -73l2 -27h-1429q-319 0 -544.5 234.5t-225.5 584.5zM309 819q0 -334 157 -550t376 -216q139 0 248.5 78t109.5 213v950q0 135 -109.5 213t-248.5 78 q-219 0 -376 -216t-157 -550z" />
<glyph unicode="&#x153;" horiz-adv-x="1779" d="M61 508q0 229 146.5 390t353.5 161q117 0 219.5 -56.5t171.5 -152.5q135 207 383 207q84 0 155 -29t114 -72t72.5 -94t41 -94t11.5 -74q0 -8 -19 -14l-643 -193q0 -49 16 -141q66 -301 332 -301q188 0 283 238l31 -33q-2 -16 -10.5 -41t-35 -70t-66.5 -80.5t-113.5 -63.5 t-168.5 -28q-252 0 -383 201q-70 -96 -172 -152.5t-219 -56.5q-205 0 -352.5 162t-147.5 387zM281 514q0 -215 81.5 -364.5t198.5 -149.5t199 149.5t82 364.5t-82 362.5t-199 147.5t-198.5 -147.5t-81.5 -362.5zM1063 535l477 141q0 14 -1 35.5t-13.5 79t-32.5 101.5 t-66.5 80t-107.5 36q-199 0 -246 -293q-14 -96 -10 -180z" />
<glyph unicode="&#x178;" horiz-adv-x="1441" d="M31 1608v30h508v-30l-125 -17q-29 -4 -2 -49l348 -592l397 600q8 18 3 28.5t-19 12.5l-125 17v30h395v-30l-108 -15q-23 -4 -50 -43l-424 -641v-813q0 -47 17 -49l125 -16v-31h-508v31l125 16q16 2 16 49v729l-422 717q-27 47 -43 51zM461 2036q0 -45 33.5 -79t81 -34 t80 34t32.5 79q0 47 -33.5 80.5t-79.5 33.5q-47 0 -80.5 -34.5t-33.5 -79.5zM874 2036q0 -47 32 -80t77 -33q49 0 82 33t33 80t-33 80.5t-82 33.5q-45 0 -77 -33.5t-32 -80.5z" />
<glyph unicode="&#x2c6;" horiz-adv-x="712" d="M82 1186l227 348q18 31 29 35q8 4 14 1t10 -9l5 -5l264 -370h-160l-174 254l-170 -254h-45z" />
<glyph unicode="&#x2dc;" horiz-adv-x="841" d="M82 1315l96 143q51 78 109 78q35 0 125 -31q8 -2 29 -9l34 -11l34.5 -11.5t38 -11.5t36 -7t35 -4t31 1t27.5 7t19 16l45 59l19 -14l-94 -138q-57 -82 -127 -82q-39 0 -127 33q-6 2 -40 16.5t-60.5 22.5t-61.5 16.5t-62.5 2t-42.5 -26.5l-43 -64z" />
<glyph unicode="&#x2000;" horiz-adv-x="1075" />
<glyph unicode="&#x2001;" horiz-adv-x="2152" />
<glyph unicode="&#x2002;" horiz-adv-x="1075" />
<glyph unicode="&#x2003;" horiz-adv-x="2152" />
<glyph unicode="&#x2004;" horiz-adv-x="716" />
<glyph unicode="&#x2005;" horiz-adv-x="536" />
<glyph unicode="&#x2006;" horiz-adv-x="358" />
<glyph unicode="&#x2007;" horiz-adv-x="358" />
<glyph unicode="&#x2008;" horiz-adv-x="268" />
<glyph unicode="&#x2009;" horiz-adv-x="430" />
<glyph unicode="&#x200a;" horiz-adv-x="118" />
<glyph unicode="&#x2010;" horiz-adv-x="1011" d="M82 461h848v121h-848v-121z" />
<glyph unicode="&#x2011;" horiz-adv-x="1011" d="M82 461h848v121h-848v-121z" />
<glyph unicode="&#x2012;" horiz-adv-x="1011" d="M82 461h848v121h-848v-121z" />
<glyph unicode="&#x2013;" horiz-adv-x="1421" d="M82 461h1257v121h-1257v-121z" />
<glyph unicode="&#x2014;" horiz-adv-x="1216" d="M82 461h1053v121h-1053v-121z" />
<glyph unicode="&#x2018;" horiz-adv-x="522" d="M84 1276q6 -78 51 -127t109 -53q61 -2 105 38t44 97q-133 57 -133 162q0 74 49 137t131 96l-14 31q-160 -35 -257 -134.5t-85 -246.5z" />
<glyph unicode="&#x2019;" horiz-adv-x="522" d="M82 1126l14 -30q160 35 257.5 134t84.5 247q-6 78 -51 127t-108 53q-61 2 -105.5 -38t-44.5 -97q133 -57 133 -162q0 -74 -49 -137.5t-131 -96.5z" />
<glyph unicode="&#x201a;" horiz-adv-x="520" d="M82 -305l10 -29q346 76 346 381q0 80 -48 131t-111.5 51t-106.5 -41t-43 -98q133 -53 133 -160q0 -76 -49 -139t-131 -96z" />
<glyph unicode="&#x201c;" horiz-adv-x="954" d="M84 1276q6 -78 51 -127t109 -53q61 -2 105 38t44 97q-133 57 -133 162q0 74 49 137t131 96l-14 31q-160 -35 -257 -134.5t-85 -246.5zM518 1276q8 -78 52 -127t108 -53q61 -2 106 38t45 97q-133 57 -133 162q0 74 47.5 137t128.5 96l-12 31q-158 -35 -257 -134.5 t-85 -246.5z" />
<glyph unicode="&#x201d;" horiz-adv-x="954" d="M82 1126l12 -30q158 35 257.5 134t84.5 247q-8 78 -52 127t-108 53q-61 2 -106 -38t-45 -97q133 -57 133 -162q0 -74 -47 -137.5t-129 -96.5zM514 1126l14 -30q160 35 257.5 134t84.5 247q-6 78 -51 127t-108 53q-61 2 -105.5 -38t-44.5 -97q133 -57 133 -162 q0 -74 -49 -137.5t-131 -96.5z" />
<glyph unicode="&#x201e;" horiz-adv-x="954" d="M82 -301l12 -31q158 35 257.5 134.5t84.5 246.5q-8 78 -52 127t-108 53q-61 2 -106 -37.5t-45 -97.5q133 -57 133 -162q0 -74 -47 -137t-129 -96zM514 -301l14 -31q160 35 257.5 134.5t84.5 246.5q-6 78 -51 127t-108 53q-61 2 -105.5 -37.5t-44.5 -97.5 q133 -57 133 -162q0 -74 -49 -137t-131 -96z" />
<glyph unicode="&#x2022;" horiz-adv-x="550" d="M82 514q0 80 57.5 136.5t137 56.5t136 -56.5t56.5 -136.5q0 -82 -56.5 -138.5t-136 -56.5t-137 57.5t-57.5 137.5z" />
<glyph unicode="&#x2026;" horiz-adv-x="1257" d="M82 86q0 51 36 86t85 35q51 0 86 -35t35 -86t-35 -86t-86 -35q-49 0 -85 35t-36 86zM510 86q0 51 36 86t85 35q51 0 86 -35t35 -86t-35 -86t-86 -35q-49 0 -85 35t-36 86zM934 86q0 51 36 86t85 35q51 0 86 -35t35 -86t-35 -86t-86 -35q-49 0 -85 35t-36 86z" />
<glyph unicode="&#x202f;" horiz-adv-x="430" />
<glyph unicode="&#x2039;" horiz-adv-x="485" d="M98 475q-35 29 0 57q166 145 271 283h34l-184 -311l184 -311h-34q-105 137 -271 282z" />
<glyph unicode="&#x203a;" horiz-adv-x="485" d="M82 193l184 311l-184 311h35q104 -137 270 -283q33 -29 0 -57q-166 -145 -270 -282h-35z" />
<glyph unicode="&#x205f;" horiz-adv-x="536" />
<glyph unicode="&#x20ac;" horiz-adv-x="1503" d="M72 633l18 84h193q-6 82 0 147h-152l19 84h137q39 305 224 509t462 204q41 0 95 -13.5t94 -28.5t75 -30.5t37 -15.5q45 -6 63 65h43q-6 -98 -6 -178l27 -266h-47q0 164 -103.5 279.5t-275.5 115.5q-160 0 -267.5 -157.5t-127.5 -483.5h395l-19 -84h-378q-6 -70 0 -147 h335l-18 -84h-313q27 -291 115.5 -432.5t250.5 -163.5q98 -12 186.5 20.5t146.5 94t92 136t34 144.5h45q-29 -147 -29 -244l7 -188h-39q-23 49 -74 49q-18 0 -56 -19.5t-114 -40t-184 -22.5q-252 0 -436.5 190.5t-231.5 475.5h-223z" />
<glyph unicode="&#x2122;" horiz-adv-x="1771" d="M41 1399q16 111 16 164q0 59 -8 75h639q-8 -16 -8 -75l16 -164h-45q0 186 -215 188v-16v-666q0 -43 29 -45l82 -8v-37h-357v37l82 8q29 2 29 45v666v16q-215 -2 -215 -188h-45zM727 815v35l82 8q29 2 29 45v651q0 39 -9 41l-81 11v32h249l224 -563l198 563h250v-32 l-86 -11q-10 -2 -10 -45v-647q0 -43 31 -45l86 -8v-35h-363v35l86 8q27 2 27 45v610l-256 -708l-281 692v-594q0 -43 31 -45l84 -8v-35h-291z" />
<glyph unicode="&#xe000;" horiz-adv-x="1025" d="M0 1025h1025v-1025h-1025v1025z" />
<glyph unicode="&#xfb01;" horiz-adv-x="1259" d="M82 0v31l125 16q16 2 16 49v881h-141v47h141v54v66q0 13 3 59t10.5 69.5t17.5 61.5t27.5 69t42.5 59q74 92 181 135t222 39q135 -2 235.5 -58t100.5 -136q0 -47 -33 -75t-74 -26t-69.5 28t-28.5 73q0 59 47 86q33 25 15 37q-6 4 -31 10t-70 12t-94 0q-311 -41 -311 -500 v-63h297q88 0 185 21.5t110 21.5q29 2 40 -16.5t11 -69.5v-885q0 -47 16 -49l125 -16v-31h-473v31l125 16q16 2 16 49v649q0 231 -30 232h-422v-881q0 -47 16 -49l125 -16v-31h-473z" />
<glyph unicode="&#xfb02;" horiz-adv-x="1239" d="M82 0v31l125 16q16 2 16 49v881h-141v47h141q0 92 3 148.5t30 150.5t76 160q61 80 148 117.5t167 37.5h377q25 0 29 -9t4 -62v-1471q0 -47 16 -49l125 -16v-31h-473v31l125 16q16 2 16 49v1235v36v36q0 8 -1 30.5t-4 32t-8 26.5t-13.5 27.5t-19.5 22.5t-27 23 q-8 6 -36 15t-79 9t-94 -22q-170 -90 -170 -480v-63h219v-47h-219v-881q0 -47 16 -49l125 -16v-31h-473z" />
<glyph unicode="&#xfb03;" horiz-adv-x="1898" d="M1350 942v47q100 0 202.5 36t106.5 36q37 0 37 -80v-885q0 -47 16 -49l125 -16v-31h-473v31l125 16q16 2 16 49v649q0 201 -30 201zM1473 1429.5q0 47.5 32.5 80t79.5 32.5q45 0 78 -32.5t33 -79.5q0 -45 -33 -78t-78 -33q-47 0 -79.5 31.5t-32.5 79zM721 0v31l125 16 q16 2 16 49v881h-141v47h141q0 94 3 149.5t29 149.5t77 160q100 147 252 155h6q99 0 179 -60q83 -62 85 -136q0 -41 -29.5 -72t-72.5 -31t-73 31t-30 72q0 59 47 86q33 25 15 37q-4 4 -20.5 11t-44.5 12t-58 -3q-174 -43 -174 -498v-63h219v-47h-219v-881q0 -47 16 -49 l125 -16v-31h-473zM82 0v31l125 16q16 2 16 49v881h-141v47h141q0 94 3 149.5t29 149.5t77 160q100 147 252 155h6q99 0 179 -60q83 -62 85 -136q0 -41 -29.5 -72t-72.5 -31t-73 31t-30 72q0 59 47 86q33 25 15 37q-4 4 -20.5 11t-44.5 12t-58 -3q-174 -43 -174 -498v-63 h219v-47h-219v-881q0 -47 16 -49l125 -16v-31h-473z" />
<glyph unicode="&#xfb04;" horiz-adv-x="1878" d="M1350 1528v47q70 0 131 13.5t109 30.5t59 19q5 1 10 1q17 0 26 -11q11 -14 11 -61v-1471q0 -47 16 -49l125 -16v-31h-473v31l125 16q16 2 16 49v1235q0 201 -30 201zM721 0v31l125 16q16 2 16 49v881h-141v47h141q0 94 3 149.5t29 149.5t77 160q100 147 252 155h6 q99 0 179 -60q83 -62 85 -136q0 -41 -29.5 -72t-72.5 -31t-73 31t-30 72q0 59 47 86q33 25 15 37q-4 4 -20.5 11t-44.5 12t-58 -3q-174 -43 -174 -498v-63h219v-47h-219v-881q0 -47 16 -49l125 -16v-31h-473zM82 0v31l125 16q16 2 16 49v881h-141v47h141q0 94 3 149.5 t29 149.5t77 160q100 147 252 155h6q99 0 179 -60q83 -62 85 -136q0 -41 -29.5 -72t-72.5 -31t-73 31t-30 72q0 59 47 86q33 25 15 37q-4 4 -20.5 11t-44.5 12t-58 -3q-174 -43 -174 -498v-63h219v-47h-219v-881q0 -47 16 -49l125 -16v-31h-473z" />
</font>
</defs>
</svg>
